<svg width="18" height="16" viewBox="0 0 18 16" fill="none" xmlns="http://www.w3.org/2000/svg">
<path d="M17.7109 8.5C17.7109 8.85156 17.4375 9.125 17.125 9.125H2.90625L8.17969 14.9844C8.41406 15.2188 8.41406 15.6094 8.14062 15.8438C8.02344 15.9609 7.86719 16 7.75 16C7.55469 16 7.39844 15.9609 7.28125 15.8047L1.03125 8.92969C0.796875 8.69531 0.796875 8.34375 1.03125 8.10938L7.28125 1.23438C7.51562 0.960938 7.90625 0.960938 8.14062 1.19531C8.41406 1.42969 8.41406 1.82031 8.17969 2.05469L2.90625 7.875H17.125C17.4375 7.875 17.7109 8.1875 17.7109 8.5Z" fill="white"/>
</svg>
