<?xml version="1.0" encoding="UTF-8"?>
<svg id="Layer_2" data-name="Layer 2" xmlns="http://www.w3.org/2000/svg" viewBox="0 0 223.19 215.27">
  <defs>
    <style>
      .cls-1 {
        fill: #7c154d;
      }

      .cls-1, .cls-2 {
        stroke-width: 0px;
      }

      .cls-2 {
        fill: #a8aaad;
      }
    </style>
  </defs>
  <g id="Layer_1-2" data-name="Layer 1">
    <g>
      <path class="cls-2" d="M111.6,189.36c-45.07,0-81.73-36.66-81.73-81.73S66.53,25.91,111.6,25.91s81.73,36.66,81.73,81.73-36.66,81.73-81.73,81.73ZM111.6,53.01c-30.12,0-54.63,24.51-54.63,54.63s24.51,54.63,54.63,54.63,54.63-24.51,54.63-54.63-24.51-54.63-54.63-54.63Z"/>
      <path class="cls-1" d="M108.5,215.27c-1.2-21.99.84-44.11,4.81-65.71,10.02-54.13,36.84-106.43,85.4-135.17,7.79-4.72,16.06-8.69,24.48-12.09-4.48,2.61-8.91,5.26-13.11,8.23-8.41,5.76-16.27,12.44-23.4,19.73-38.88,39.69-51.26,97.98-48.02,151.94.56,9.08,1.47,18.09,3.09,27l.16.81c.05.23.11.57.14.63l-33.56,4.62Z"/>
      <path class="cls-1" d="M114.69,0c1.2,21.99-.84,44.11-4.81,65.71-10.02,54.13-36.84,106.43-85.4,135.17-7.79,4.72-16.06,8.69-24.48,12.09,4.48-2.61,8.91-5.26,13.11-8.23,8.41-5.76,16.27-12.44,23.4-19.73,38.88-39.69,51.26-97.98,48.02-151.94-.56-9.08-1.47-18.09-3.09-27l-.16-.81c-.05-.23-.11-.57-.14-.63L114.69,0Z"/>
    </g>
  </g>
</svg>