<svg width="25" height="25" viewBox="0 0 25 25" fill="none" xmlns="http://www.w3.org/2000/svg">
<path d="M19 5.72461C20.3672 5.72461 21.5 6.85742 21.5 8.22461V18.2246C21.5 19.6309 20.3672 20.7246 19 20.7246H4C2.59375 20.7246 1.5 19.6309 1.5 18.2246V8.22461C1.5 6.85742 2.59375 5.72461 4 5.72461H19ZM4 6.97461C3.29688 6.97461 2.75 7.56055 2.75 8.22461V9.63086L10.3672 15.373C11.0312 15.8809 11.9297 15.8809 12.5938 15.373L20.25 9.66992V8.22461C20.25 7.56055 19.6641 6.97461 19 6.97461H4ZM20.25 18.2246V11.1934L13.375 16.3496C12.7891 16.7793 12.125 17.0137 11.5 17.0137C10.8359 17.0137 10.1719 16.7793 9.625 16.3496L2.75 11.1934V18.2246C2.75 18.9277 3.29688 19.4746 4 19.4746H19C19.6641 19.4746 20.25 18.9277 20.25 18.2246Z" fill="#1F2120"/>
</svg>
