<svg width="24" height="24" viewBox="0 0 24 24" fill="none" xmlns="http://www.w3.org/2000/svg">
<path d="M7.875 3.75C8.1875 3.75 8.5 4.0625 8.5 4.375C8.5 4.72656 8.1875 5 7.875 5H3.5V9.375C3.5 9.72656 3.1875 10 2.875 10C2.52344 10 2.25 9.72656 2.25 9.375V4.375C2.25 4.0625 2.52344 3.75 2.875 3.75H7.875ZM7.875 20C8.1875 20 8.5 20.3125 8.5 20.625C8.5 20.9766 8.1875 21.25 7.875 21.25H2.875C2.52344 21.25 2.25 20.9766 2.25 20.625V15.625C2.25 15.3125 2.52344 15 2.875 15C3.1875 15 3.5 15.3125 3.5 15.625V20H7.875ZM19.125 15C19.4375 15 19.75 15.3125 19.75 15.625V20.625C19.75 20.9766 19.4375 21.25 19.125 21.25H14.125C13.7734 21.25 13.5 20.9766 13.5 20.625C13.5 20.3125 13.7734 20 14.125 20H18.5V15.625C18.5 15.3125 18.7734 15 19.125 15ZM19.125 3.75C19.4375 3.75 19.75 4.0625 19.75 4.375V9.375C19.75 9.72656 19.4375 10 19.125 10C18.7734 10 18.5 9.72656 18.5 9.375V5H14.125C13.7734 5 13.5 4.72656 13.5 4.375C13.5 4.0625 13.7734 3.75 14.125 3.75H19.125Z" fill="#FDF8F8"/>
</svg>
