<svg width="24" height="25" viewBox="0 0 24 25" fill="none" xmlns="http://www.w3.org/2000/svg">
<g id="instagram">
<path id="Vector" d="M12.0048 7.33437C9.02354 7.33437 6.61885 9.73906 6.61885 12.7203C6.61885 15.7016 9.02354 18.1062 12.0048 18.1062C14.986 18.1062 17.3907 15.7016 17.3907 12.7203C17.3907 9.73906 14.986 7.33437 12.0048 7.33437ZM12.0048 16.2219C10.0782 16.2219 8.50322 14.6516 8.50322 12.7203C8.50322 10.7891 10.0735 9.21875 12.0048 9.21875C13.936 9.21875 15.5063 10.7891 15.5063 12.7203C15.5063 14.6516 13.9313 16.2219 12.0048 16.2219ZM18.8673 7.11406C18.8673 7.8125 18.3048 8.37031 17.611 8.37031C16.9126 8.37031 16.3548 7.80781 16.3548 7.11406C16.3548 6.42031 16.9173 5.85781 17.611 5.85781C18.3048 5.85781 18.8673 6.42031 18.8673 7.11406ZM22.4345 8.38906C22.3548 6.70625 21.9704 5.21562 20.7376 3.9875C19.5095 2.75937 18.0188 2.375 16.336 2.29062C14.6017 2.19219 9.40322 2.19219 7.66885 2.29062C5.99072 2.37031 4.5001 2.75469 3.26729 3.98281C2.03447 5.21094 1.65479 6.70156 1.57041 8.38437C1.47197 10.1187 1.47197 15.3172 1.57041 17.0516C1.6501 18.7344 2.03447 20.225 3.26729 21.4531C4.5001 22.6812 5.98604 23.0656 7.66885 23.15C9.40322 23.2484 14.6017 23.2484 16.336 23.15C18.0188 23.0703 19.5095 22.6859 20.7376 21.4531C21.9657 20.225 22.3501 18.7344 22.4345 17.0516C22.5329 15.3172 22.5329 10.1234 22.4345 8.38906ZM20.1938 18.9125C19.8282 19.8312 19.1204 20.5391 18.197 20.9094C16.8142 21.4578 13.5329 21.3312 12.0048 21.3312C10.4767 21.3312 7.19072 21.4531 5.8126 20.9094C4.89385 20.5437 4.18604 19.8359 3.81572 18.9125C3.26729 17.5297 3.39385 14.2484 3.39385 12.7203C3.39385 11.1922 3.27197 7.90625 3.81572 6.52812C4.18135 5.60938 4.88916 4.90156 5.8126 4.53125C7.19541 3.98281 10.4767 4.10937 12.0048 4.10937C13.5329 4.10937 16.8188 3.9875 18.197 4.53125C19.1157 4.89687 19.8235 5.60469 20.1938 6.52812C20.7423 7.91094 20.6157 11.1922 20.6157 12.7203C20.6157 14.2484 20.7423 17.5344 20.1938 18.9125Z" fill="#1F2120"/>
</g>
</svg>
