<svg width="368" height="126" viewBox="0 0 368 126" fill="none" xmlns="http://www.w3.org/2000/svg">
<g clip-path="url(#clip0_331_42959)">
<path d="M66.2226 110.474C39.6798 110.474 18.0898 89.1778 18.0898 62.9966C18.0898 36.8154 39.6798 15.5254 66.2226 15.5254C92.7654 15.5254 114.355 36.8212 114.355 63.0024C114.355 89.1836 92.7654 110.479 66.2226 110.479V110.474ZM66.2226 31.2678C48.4842 31.2678 34.0497 45.5057 34.0497 63.0024C34.0497 80.4991 48.4842 94.737 66.2226 94.737C83.961 94.737 98.3956 80.4991 98.3956 63.0024C98.3956 45.5057 83.961 31.2678 66.2226 31.2678Z" fill="#A8AAAD"/>
<path d="M64.3968 125.525C63.6901 112.751 64.8915 99.9015 67.2295 87.354C73.1306 55.9098 88.9255 25.5287 117.524 8.83364C122.111 6.09179 126.982 3.78561 131.941 1.81055C129.302 3.3267 126.693 4.86609 124.22 6.59136C119.267 9.93735 114.638 13.8178 110.439 18.0525C87.5415 41.1085 80.2507 74.9692 82.1588 106.315C82.4886 111.589 83.0245 116.823 83.9786 121.999L84.0728 122.469C84.1022 122.603 84.1376 122.801 84.1552 122.835L64.3909 125.519L64.3968 125.525Z" fill="#7C154D"/>
<path d="M68.0437 0.474609C68.7504 13.2486 67.549 26.0981 65.211 38.6456C59.31 70.0898 43.515 100.471 14.9169 117.166C10.3291 119.908 5.45874 122.214 0.5 124.189C3.13838 122.673 5.74732 121.134 8.2208 119.408C13.1737 116.062 17.8026 112.182 22.0016 107.947C44.899 84.8911 52.1899 51.0304 50.2818 19.685C49.952 14.4104 49.4161 9.1765 48.462 4.00068L48.3678 3.53015C48.3383 3.39654 48.303 3.19903 48.2853 3.16418L68.0437 0.474609Z" fill="#7C154D"/>
<path d="M185.245 85.2727C185.245 87.6486 184.956 89.7514 184.385 91.5929C183.813 93.4343 182.895 95.0957 181.634 96.577C180.368 98.0583 178.702 99.4408 176.629 100.719C174.556 101.997 171.982 103.222 168.914 104.413L165.574 98.6276V97.6459C169.002 95.8044 171.422 93.9688 172.842 92.1273C174.255 90.2858 174.962 87.9158 174.962 85.0054V78.5052L174.508 48.9547L165.486 49.222L164.762 48.4203L165.304 41.0312H185.698L185.156 77.4363L185.245 85.2669V85.2727Z" fill="#7C154D"/>
<path d="M214.033 55.4549C218.362 55.4549 221.748 56.4018 224.186 58.3013C226.624 60.2009 227.843 62.9311 227.843 66.492L227.39 76.2802C227.266 78.6561 227.166 80.6137 227.072 82.1531C226.983 83.6983 226.936 84.7962 226.936 85.4468C226.936 87.2244 227.596 88.119 228.921 88.119C229.581 88.119 230.364 87.9389 231.265 87.5845L232.166 88.2991L231.082 94.0848C229.457 95.1537 227.413 95.8333 224.946 96.1296C221.336 95.7753 219.168 93.6956 218.45 89.8965H217.908C215.022 92.9811 211.984 95.0898 208.792 96.2167C204.822 96.1586 201.689 95.0898 199.404 93.0102C197.119 90.9363 195.977 88.1132 195.977 84.5522C195.977 79.0918 198.862 75.8271 204.64 74.7583L217.814 72.2662L217.902 68.5252C217.902 64.7261 216.006 62.8266 212.219 62.8266C208.668 62.8266 204.581 64.4589 199.946 67.7236L199.222 67.1891L197.867 60.1544C203.161 57.0117 208.544 55.4375 214.021 55.4375L214.033 55.4549ZM205.547 83.4079C205.547 84.9531 205.965 86.1672 206.813 87.0559C207.655 87.9447 208.827 88.392 210.335 88.392C212.678 88.392 215.117 87.0559 217.643 84.3838L217.826 77.6163L208.621 79.5739C206.577 79.9922 205.552 81.2644 205.552 83.4021L205.547 83.4079Z" fill="#7C154D"/>
<path d="M264.744 95.4208L265.469 70.9416C265.469 66.4919 263.543 64.267 259.691 64.267C257.165 64.267 254.397 65.5741 251.388 68.1823L251.205 78.1506L251.658 95.4208H240.828L241.458 79.1323L241.005 36.8485L251.741 36.0469L251.382 61.9492H251.923C253.667 60.346 255.41 59.0273 257.159 57.9875C258.902 56.9477 260.74 56.1925 262.665 55.7162C266.876 55.7162 270.092 56.6979 272.324 58.6555C274.55 60.6132 275.604 63.4015 275.48 67.0205L275.298 78.1448L275.657 95.4149H264.738L264.744 95.4208Z" fill="#7C154D"/>
<path d="M302.01 55.4549C306.344 55.4549 309.724 56.4018 312.163 58.3013C314.601 60.2009 315.82 62.9311 315.82 66.492L315.366 76.2802C315.243 78.6561 315.143 80.6137 315.048 82.1531C314.96 83.6983 314.913 84.7962 314.913 85.4468C314.913 87.2244 315.572 88.119 316.898 88.119C317.557 88.119 318.34 87.9389 319.241 87.5845L320.143 88.2991L319.059 94.0848C317.433 95.1537 315.39 95.8333 312.922 96.1296C309.312 95.7753 307.145 93.6956 306.426 89.8965H305.885C302.999 92.9811 299.96 95.0898 296.768 96.2167C292.799 96.1586 289.672 95.0898 287.381 93.0102C285.096 90.9363 283.953 88.1132 283.953 84.5522C283.953 79.0918 286.839 75.8271 292.616 74.7583L305.79 72.2662L305.879 68.5252C305.879 64.7261 303.982 62.8266 300.196 62.8266C296.644 62.8266 292.551 64.4589 287.922 67.7236L287.204 67.1891L285.849 60.1544C291.144 57.0117 296.527 55.4375 302.004 55.4375L302.01 55.4549ZM293.529 83.4079C293.529 84.9531 293.947 86.1672 294.789 87.0559C295.631 87.9447 296.803 88.392 298.311 88.392C300.655 88.392 303.093 87.0559 305.62 84.3838L305.802 77.6163L296.597 79.5739C294.554 79.9922 293.529 81.2644 293.529 83.4021V83.4079Z" fill="#7C154D"/>
<path d="M352.369 95.4214L352.911 70.9423C352.911 66.4926 350.985 64.2677 347.134 64.2677C344.548 64.2677 341.751 65.5747 338.742 68.183V78.1512L339.283 95.4214H328.453L328.995 79.2201L328.541 56.8786L338.83 55.9899V61.9557H339.372C342.682 58.7492 346.292 56.6753 350.202 55.7227C354.413 55.7227 357.634 56.7044 359.86 58.662C362.087 60.6197 363.141 63.408 363.017 67.027L362.746 78.1512L363.2 95.4214H352.369Z" fill="#7C154D"/>
<path d="M264.639 41.6581L264.768 35.6864L264.639 21.8203H275.952L276.117 22.0469L275.887 23.9406L271.158 23.8418L267.153 23.8767L267.089 30.4641L270.858 30.499L274.232 30.4641L274.397 30.6268L274.197 32.5205L267.053 32.4857L267.018 35.4889L267.083 39.6307L270.987 39.6656L275.946 39.5378L276.111 39.7643L275.911 41.6581H264.633H264.639Z" fill="#939598"/>
<path d="M292.16 41.6581L291.3 40.0606L286.636 33.2757L281.807 40.1943L281.011 41.6639H278.367L285.146 31.6144L278.597 21.8262H281.642L282.472 23.3597L286.836 29.7206L291.17 23.3597L292.001 21.8262H294.71L288.296 31.3181L295.21 41.6581H292.166H292.16Z" fill="#939598"/>
<path d="M299.762 41.6578L299.891 35.6861L299.762 21.82L305.881 21.7852C307.889 21.7852 309.42 22.2789 310.48 23.2723C311.54 24.2598 312.07 25.7004 312.07 27.5942C312.07 29.8132 311.405 31.5501 310.068 32.799C308.737 34.048 306.899 34.6753 304.561 34.6753H302.147L302.247 41.6578H299.768H299.762ZM309.485 27.7917C309.485 25.1834 308.107 23.8241 305.351 23.7137L302.276 23.7776L302.212 32.6538L305.486 32.7177C306.788 32.5028 307.777 31.9742 308.466 31.1377C309.149 30.3012 309.491 29.1858 309.491 27.7917H309.485Z" fill="#939598"/>
<path d="M332.673 31.347C332.673 34.7163 331.884 37.3187 330.306 39.1427C328.727 40.9667 326.495 41.8846 323.61 41.8846C320.724 41.8846 318.745 41.0248 317.29 39.3054C315.836 37.5859 315.105 35.1171 315.105 31.8989C315.105 28.6807 315.883 26.0492 317.438 24.2658C318.992 22.4825 321.213 21.5879 324.104 21.5879C326.996 21.5879 328.975 22.4244 330.453 24.0974C331.931 25.7704 332.667 28.1869 332.667 31.3412L332.673 31.347ZM317.626 31.6084C317.626 34.4374 318.133 36.5287 319.145 37.888C320.158 39.2473 321.701 39.9269 323.774 39.9269C327.985 39.9269 330.094 37.2083 330.094 31.7711C330.094 28.9886 329.581 26.938 328.556 25.6193C327.532 24.3065 325.983 23.6443 323.91 23.6443C319.723 23.6443 317.626 26.299 317.626 31.6026V31.6084Z" fill="#939598"/>
<path d="M337.5 41.6578L337.63 35.6861L337.5 21.82L343.619 21.7852C345.627 21.7852 347.158 22.2615 348.218 23.22C349.278 24.1785 349.809 25.5901 349.809 27.4606C349.809 28.8547 349.449 30.0746 348.737 31.1319C348.018 32.1891 346.988 33.0082 345.645 33.5949C346.44 34.8787 347.27 36.1392 348.142 37.3765C349.013 38.6139 349.92 39.857 350.869 41.0943V41.3906C350.539 41.5009 350.18 41.6113 349.791 41.7159C349.402 41.8262 348.99 41.9018 348.548 41.9424L348.218 41.7449C347.294 40.374 346.446 39.067 345.674 37.8122C344.903 36.5633 344.184 35.3608 343.525 34.2048H339.885L339.985 41.6403H337.506L337.5 41.6578ZM343.684 32.3285C346.045 31.6314 347.223 30.0688 347.223 27.629C347.223 25.1892 345.845 23.8241 343.089 23.7137L340.015 23.7776L339.95 32.2298L343.69 32.3285H343.684Z" fill="#939598"/>
<path d="M359.195 41.658L359.36 35.6864L359.231 23.7779H357.181L353.606 23.9057L353.441 23.6443L353.642 21.8145H367.299L367.499 22.041L367.299 23.8999L363.795 23.7721H361.745L361.616 35.4831L361.716 41.6464H359.201L359.195 41.658Z" fill="#939598"/>
</g>
<defs>
<clipPath id="clip0_331_42959">
<rect width="367" height="125.051" fill="white" transform="translate(0.5 0.474609)"/>
</clipPath>
</defs>
</svg>
