<svg width="24" height="25" viewBox="0 0 24 25" fill="none" xmlns="http://www.w3.org/2000/svg">
<g id="linkedin-in" clip-path="url(#clip0_125_53052)">
<path id="Vector" d="M6.20062 21.7241H1.84688V7.70383H6.20062V21.7241ZM4.02141 5.79133C2.62922 5.79133 1.5 4.6382 1.5 3.24602C1.5 2.5773 1.76565 1.93597 2.2385 1.46311C2.71136 0.990257 3.35269 0.724609 4.02141 0.724609C4.69012 0.724609 5.33145 0.990257 5.80431 1.46311C6.27716 1.93597 6.54281 2.5773 6.54281 3.24602C6.54281 4.6382 5.41313 5.79133 4.02141 5.79133ZM22.4953 21.7241H18.1509V14.8991C18.1509 13.2726 18.1181 11.1866 15.8873 11.1866C13.6237 11.1866 13.2769 12.9538 13.2769 14.782V21.7241H8.92781V7.70383H13.1034V9.61633H13.1644C13.7456 8.51477 15.1655 7.35227 17.2838 7.35227C21.69 7.35227 22.5 10.2538 22.5 14.0226V21.7241H22.4953Z" fill="#1F2120"/>
</g>
<defs>
<clipPath id="clip0_125_53052">
<rect width="24" height="24" fill="white" transform="translate(0 0.724609)"/>
</clipPath>
</defs>
</svg>
