<svg width="24" height="25" viewBox="0 0 24 25" fill="none" xmlns="http://www.w3.org/2000/svg">
<path d="M22.4375 8.3418C22.6328 8.45898 22.75 8.6543 22.75 8.84961V20.2949C22.75 20.5684 22.5547 20.8027 22.3203 20.8809L16.1094 23.1855C16.0312 23.2246 15.9531 23.2246 15.875 23.2246C15.8359 23.2246 15.7578 23.2246 15.7188 23.2246L7.04688 20.7246L1.07031 23.1855C0.914062 23.2637 0.679688 23.2637 0.523438 23.1465C0.328125 23.0293 0.25 22.834 0.25 22.5996V11.1934C0.25 10.9199 0.40625 10.6855 0.640625 10.6074L5.32812 8.84961C5.36719 9.24023 5.48438 9.63086 5.64062 10.0605L1.5 11.623V21.7012L6.5 19.5918V15.0996C6.5 14.7871 6.77344 14.4746 7.125 14.4746C7.4375 14.4746 7.75 14.7871 7.75 15.0996V19.6309L15.25 21.7793V15.0996C15.25 14.7871 15.5234 14.4746 15.875 14.4746C16.1875 14.4746 16.5 14.7871 16.5 15.0996V21.7402L21.5 19.8652V9.78711L16.4609 11.7793C16.4609 11.7793 17.0078 10.7246 17.2422 10.0996L21.8516 8.30273C22.0469 8.22461 22.2422 8.22461 22.4375 8.3418ZM11.5 15.7246C11.1094 15.7246 10.7578 15.5684 10.5234 15.2949C9.3125 13.8105 6.5 10.1777 6.5 8.14648C6.5 5.45117 8.72656 3.22461 11.5 3.22461C14.2344 3.22461 16.5 5.45117 16.5 8.14648C16.5 10.1777 13.6484 13.8105 12.4375 15.2949C12.2031 15.5684 11.8516 15.7246 11.5 15.7246ZM11.5 4.47461C9.42969 4.47461 7.75 6.1543 7.75 8.14648C7.75 9.24023 9.23438 11.7402 11.5 14.4746C13.7266 11.7402 15.25 9.24023 15.25 8.18555C15.25 6.1543 13.5312 4.47461 11.5 4.47461ZM12.4375 8.22461C12.4375 8.77148 12.0078 9.16211 11.5 9.16211C10.9531 9.16211 10.5625 8.77148 10.5625 8.22461C10.5625 7.7168 10.9531 7.28711 11.5 7.28711C12.0078 7.28711 12.4375 7.7168 12.4375 8.22461Z" fill="#1F2120"/>
</svg>
