<svg width="203" height="83" viewBox="0 0 203 83" fill="none" xmlns="http://www.w3.org/2000/svg">
<path d="M20.7455 63.7981C20.7455 66.1739 20.4569 68.2768 19.8856 70.1183C19.3144 71.9597 18.3957 73.6211 17.1354 75.1024C15.8692 76.5837 14.2025 77.9662 12.1295 79.2442C10.0565 80.5222 7.4829 81.7479 4.4146 82.9387L1.0754 77.153V76.1712C4.50294 74.3298 6.92343 72.4941 8.34274 70.6527C9.75616 68.8112 10.4629 66.4412 10.4629 63.5308V57.0306L10.0094 27.4801L0.987061 27.7473L0.262695 26.9457L0.804496 19.5566H21.1989L20.6571 55.9617L20.7455 63.7923V63.7981Z" fill="#7C154D"/>
<path d="M49.532 33.9803C53.8606 33.9803 57.2469 34.9272 59.6851 36.8267C62.1232 38.7263 63.3423 41.4565 63.3423 45.0174L62.8888 54.8056C62.7651 57.1815 62.665 59.1391 62.5708 60.6785C62.4824 62.2237 62.4353 63.3216 62.4353 63.9722C62.4353 65.7498 63.0949 66.6444 64.42 66.6444C65.0796 66.6444 65.8629 66.4643 66.7639 66.1099L67.665 66.8244L66.5814 72.6102C64.9559 73.6791 62.9123 74.3587 60.4448 74.655C56.8347 74.3006 54.6674 72.221 53.9489 68.4219H53.4071C50.5214 71.5065 47.4825 73.6152 44.2906 74.7421C40.3212 74.684 37.1881 73.6152 34.9031 71.5356C32.6181 69.4617 31.4756 66.6386 31.4756 63.0776C31.4756 57.6172 34.3613 54.3525 40.1387 53.2836L53.3129 50.7916L53.4012 47.0506C53.4012 43.2515 51.5049 41.352 47.7181 41.352C44.1669 41.352 40.0798 42.9843 35.4449 46.2489L34.7205 45.7145L33.366 38.6798C38.6605 35.5371 44.0432 33.9629 49.5202 33.9629L49.532 33.9803ZM41.0456 61.9333C41.0456 63.4785 41.4637 64.6925 42.3118 65.5813C43.154 66.4701 44.3259 66.9174 45.8335 66.9174C48.1775 66.9174 50.6156 65.5813 53.1421 62.9092L53.3247 56.1417L44.1198 58.0993C42.0762 58.5176 41.0515 59.7897 41.0515 61.9275L41.0456 61.9333Z" fill="#7C154D"/>
<path d="M100.244 73.9461L100.969 49.467C100.969 45.0173 99.0429 42.7924 95.1914 42.7924C92.6649 42.7924 89.897 44.0995 86.8876 46.7077L86.705 56.676L87.1585 73.9461H76.3281L76.9583 57.6577L76.5048 15.3739L87.2409 14.5723L86.8817 40.4746H87.4235C89.1667 38.8713 90.9099 37.5527 92.659 36.5129C94.4022 35.4731 96.2397 34.7179 98.1655 34.2416C102.376 34.2416 105.592 35.2233 107.824 37.1809C110.05 39.1386 111.104 41.9269 110.98 45.5459L110.798 56.6702L111.157 73.9403H100.238L100.244 73.9461Z" fill="#7C154D"/>
<path d="M137.512 33.9803C141.846 33.9803 145.226 34.9272 147.665 36.8267C150.103 38.7263 151.322 41.4565 151.322 45.0174L150.868 54.8056C150.745 57.1815 150.645 59.1391 150.55 60.6785C150.462 62.2237 150.415 63.3216 150.415 63.9722C150.415 65.7498 151.074 66.6444 152.4 66.6444C153.059 66.6444 153.842 66.4643 154.743 66.1099L155.644 66.8244L154.561 72.6102C152.935 73.6791 150.892 74.3587 148.424 74.655C144.814 74.3006 142.647 72.221 141.928 68.4219H141.387C138.501 71.5065 135.462 73.6152 132.27 74.7421C128.301 74.684 125.174 73.6152 122.883 71.5356C120.598 69.4617 119.455 66.6386 119.455 63.0776C119.455 57.6172 122.341 54.3525 128.118 53.2836L141.292 50.7916L141.381 47.0506C141.381 43.2515 139.484 41.352 135.698 41.352C132.146 41.352 128.053 42.9843 123.424 46.2489L122.706 45.7145L121.351 38.6798C126.646 35.5371 132.029 33.9629 137.506 33.9629L137.512 33.9803ZM129.031 61.9333C129.031 63.4785 129.449 64.6925 130.291 65.5813C131.133 66.4701 132.305 66.9174 133.813 66.9174C136.157 66.9174 138.595 65.5813 141.122 62.9092L141.304 56.1417L132.099 58.0993C130.056 58.5176 129.031 59.7897 129.031 61.9275V61.9333Z" fill="#7C154D"/>
<path d="M187.87 73.9468L188.412 49.4677C188.412 45.018 186.486 42.7931 182.635 42.7931C180.049 42.7931 177.252 44.1001 174.243 46.7084V56.6766L174.784 73.9468H163.954L164.496 57.7455L164.042 35.404L174.331 34.5153V40.4811H174.873C178.183 37.2745 181.793 35.2007 185.703 34.248C189.914 34.248 193.135 35.2298 195.361 37.1874C197.588 39.145 198.642 41.9334 198.518 45.5524L198.247 56.6766L198.701 73.9468H187.87Z" fill="#7C154D"/>
<path d="M100.139 20.1835L100.268 14.2118L100.139 0.345703H111.452L111.617 0.572254L111.387 2.46599L106.658 2.36724L102.653 2.40209L102.589 8.98951L106.358 9.02436L109.732 8.98951L109.897 9.15216L109.697 11.0459L102.553 11.011L102.518 14.0143L102.583 18.1561L106.487 18.191L111.446 18.0632L111.611 18.2897L111.411 20.1835H100.133H100.139Z" fill="#939598"/>
<path d="M127.659 20.1835L126.799 18.586L122.135 11.8011L117.306 18.7196L116.51 20.1893H113.866L120.645 10.1397L114.096 0.351562H117.141L117.971 1.88514L122.335 8.24601L126.669 1.88514L127.5 0.351562H130.209L123.795 9.84348L130.709 20.1835H127.665H127.659Z" fill="#939598"/>
<path d="M135.262 20.1832L135.391 14.2115L135.262 0.345402L141.381 0.310547C143.389 0.310547 144.92 0.804313 145.98 1.79765C147.04 2.78519 147.57 4.22582 147.57 6.11956C147.57 8.3386 146.905 10.0755 145.568 11.3244C144.237 12.5734 142.399 13.2007 140.061 13.2007H137.647L137.747 20.1832H135.268H135.262ZM144.985 6.31706C144.985 3.70882 143.607 2.34951 140.851 2.23914L137.776 2.30304L137.712 11.1792L140.986 11.2431C142.288 11.0282 143.277 10.4995 143.966 9.66305C144.649 8.82655 144.991 7.71122 144.991 6.31706H144.985Z" fill="#939598"/>
<path d="M168.171 9.87242C168.171 13.2416 167.382 15.8441 165.804 17.6681C164.225 19.4921 161.993 20.41 159.108 20.41C156.222 20.41 154.243 19.5502 152.788 17.8308C151.334 16.1113 150.604 13.6425 150.604 10.4243C150.604 7.20608 151.381 4.5746 152.936 2.79123C154.49 1.00787 156.711 0.113281 159.602 0.113281C162.494 0.113281 164.473 0.949778 165.951 2.62277C167.429 4.29577 168.165 6.71232 168.165 9.86661L168.171 9.87242ZM153.124 10.1338C153.124 12.9628 153.631 15.0541 154.644 16.4134C155.656 17.7727 157.199 18.4523 159.272 18.4523C163.483 18.4523 165.592 15.7337 165.592 10.2965C165.592 7.51396 165.079 5.46338 164.055 4.14473C163.03 2.8319 161.481 2.16967 159.408 2.16967C155.221 2.16967 153.124 4.82439 153.124 10.128V10.1338Z" fill="#939598"/>
<path d="M173 20.1832L173.13 14.2115L173 0.345402L179.119 0.310547C181.127 0.310547 182.658 0.786886 183.718 1.74537C184.778 2.70386 185.309 4.11545 185.309 5.98595C185.309 7.38011 184.949 8.6 184.237 9.65724C183.518 10.7145 182.488 11.5336 181.145 12.1203C181.94 13.4041 182.77 14.6646 183.642 15.9019C184.513 17.1392 185.42 18.3824 186.369 19.6197V19.916C186.039 20.0263 185.68 20.1367 185.291 20.2413C184.902 20.3516 184.49 20.4271 184.048 20.4678L183.718 20.2703C182.794 18.8994 181.946 17.5923 181.174 16.3376C180.403 15.0887 179.684 13.8862 179.025 12.7302H175.385L175.485 20.1657H173.006L173 20.1832ZM179.184 10.8539C181.545 10.1568 182.723 8.59419 182.723 6.15441C182.723 3.71463 181.345 2.34951 178.589 2.23914L175.515 2.30304L175.45 10.7551L179.19 10.8539H179.184Z" fill="#939598"/>
<path d="M194.696 20.1834L194.861 14.2118L194.732 2.30329H192.682L189.107 2.43109L188.942 2.16968L189.143 0.339844H202.8L203 0.566395L202.8 2.42528L199.296 2.29748H197.246L197.117 14.0084L197.217 20.1718H194.702L194.696 20.1834Z" fill="#939598"/>
</svg>
