<svg width="280" height="97" viewBox="0 0 280 97" fill="none" xmlns="http://www.w3.org/2000/svg">
<path d="M50.1439 85.0813C29.8933 85.0813 13.4214 68.6093 13.4214 48.3587C13.4214 28.108 29.8933 11.6406 50.1439 11.6406C70.3946 11.6406 86.8665 28.1125 86.8665 48.3632C86.8665 68.6138 70.3946 85.0857 50.1439 85.0857V85.0813ZM50.1439 23.8171C36.6106 23.8171 25.5978 34.8298 25.5978 48.3632C25.5978 61.8966 36.6106 72.9093 50.1439 72.9093C63.6773 72.9093 74.6901 61.8966 74.6901 48.3632C74.6901 34.8298 63.6773 23.8171 50.1439 23.8171Z" fill="#A8AAAD"/>
<path d="M48.7509 96.7239C48.2117 86.8435 49.1283 76.9046 50.9121 67.1994C55.4143 42.878 67.4649 19.3788 89.2837 6.46543C92.7838 4.34466 96.4997 2.56088 100.283 1.0332C98.27 2.20592 96.2795 3.3966 94.3924 4.73107C90.6136 7.31913 87.082 10.3206 83.8784 13.5961C66.409 31.4294 60.8465 57.62 62.3023 81.8651C62.5539 85.9449 62.9628 89.9932 63.6906 93.9966L63.7625 94.3605C63.785 94.4639 63.812 94.6167 63.8254 94.6436L48.7464 96.7195L48.7509 96.7239Z" fill="#7C154D"/>
<path d="M51.532 0C52.0712 9.88045 51.1546 19.8193 49.3708 29.5245C44.8687 53.846 32.818 77.3452 10.9992 90.2585C7.49908 92.3793 3.78324 94.1631 0 95.6907C2.01293 94.518 4.0034 93.3273 5.89053 91.9929C9.66927 89.4048 13.2009 86.4034 16.4045 83.1279C33.8739 65.2945 39.4364 39.1039 37.9806 14.8589C37.729 10.7791 37.3202 6.73075 36.5923 2.72735L36.5204 2.3634C36.4979 2.26006 36.4709 2.10729 36.4575 2.08033L51.532 0Z" fill="#7C154D"/>
<path d="M130.91 65.589C130.91 67.4267 130.69 69.0532 130.254 70.4776C129.818 71.9019 129.117 73.1869 128.156 74.3327C127.19 75.4784 125.918 76.5478 124.336 77.5363C122.755 78.5248 120.791 79.4729 118.45 80.394L115.903 75.9188V75.1594C118.518 73.7351 120.364 72.3153 121.447 70.8909C122.526 69.4666 123.065 67.6334 123.065 65.3823V60.3545L122.719 37.4978L115.835 37.7045L115.283 37.0844L115.696 31.3691H131.256L130.843 59.5277L130.91 65.5845V65.589Z" fill="#7C154D"/>
<path d="M152.873 42.5252C156.176 42.5252 158.759 43.2576 160.619 44.7268C162.48 46.1961 163.41 48.3079 163.41 51.0622L163.064 58.6332C162.969 60.4709 162.893 61.9851 162.821 63.1757C162.754 64.3709 162.718 65.2201 162.718 65.7234C162.718 67.0983 163.221 67.7902 164.232 67.7902C164.735 67.7902 165.333 67.6509 166.02 67.3768L166.708 67.9295L165.881 72.4047C164.641 73.2314 163.082 73.7571 161.199 73.9863C158.445 73.7122 156.791 72.1036 156.243 69.1651H155.83C153.628 71.551 151.31 73.182 148.874 74.0537C145.846 74.0087 143.456 73.182 141.712 71.5734C139.969 69.9694 139.097 67.7857 139.097 65.0314C139.097 60.8078 141.299 58.2827 145.707 57.456L155.758 55.5284L155.825 52.6348C155.825 49.6963 154.378 48.227 151.489 48.227C148.78 48.227 145.662 49.4896 142.126 52.0147L141.573 51.6014L140.539 46.1602C144.579 43.7294 148.686 42.5117 152.864 42.5117L152.873 42.5252ZM146.399 64.1463C146.399 65.3414 146.718 66.2805 147.365 66.968C148.007 67.6554 148.901 68.0014 150.051 68.0014C151.84 68.0014 153.7 66.968 155.627 64.9011L155.767 59.6666L148.744 61.1808C147.185 61.5043 146.403 62.4883 146.403 64.1418L146.399 64.1463Z" fill="#7C154D"/>
<path d="M191.564 73.4382L192.116 54.5041C192.116 51.0623 190.647 49.3414 187.708 49.3414C185.781 49.3414 183.669 50.3524 181.373 52.3698L181.234 60.0801L181.58 73.4382H173.317L173.798 60.8394L173.452 28.1337L181.643 27.5137L181.369 47.5487H181.782C183.112 46.3085 184.442 45.2886 185.776 44.4843C187.106 43.68 188.508 43.0959 189.978 42.7275C193.19 42.7275 195.643 43.4868 197.346 45.001C199.045 46.5152 199.849 48.6719 199.755 51.4712L199.615 60.0756L199.889 73.4337H191.559L191.564 73.4382Z" fill="#7C154D"/>
<path d="M219.996 42.5252C223.303 42.5252 225.882 43.2576 227.742 44.7268C229.602 46.1961 230.532 48.3079 230.532 51.0622L230.186 58.6332C230.092 60.4709 230.015 61.9851 229.944 63.1757C229.876 64.3709 229.84 65.2201 229.84 65.7234C229.84 67.0983 230.343 67.7902 231.354 67.7902C231.858 67.7902 232.455 67.6509 233.143 67.3768L233.83 67.9295L233.003 72.4047C231.763 73.2314 230.204 73.7571 228.322 73.9863C225.567 73.7122 223.914 72.1036 223.366 69.1651H222.952C220.751 71.551 218.432 73.182 215.997 74.0537C212.968 74.0087 210.583 73.182 208.835 71.5734C207.091 69.9694 206.22 67.7857 206.22 65.0314C206.22 60.8078 208.421 58.2827 212.829 57.456L222.88 55.5284L222.948 52.6348C222.948 49.6963 221.501 48.227 218.612 48.227C215.902 48.227 212.78 49.4896 209.248 52.0147L208.7 51.6014L207.667 46.1602C211.706 43.7294 215.813 42.5117 219.991 42.5117L219.996 42.5252ZM213.526 64.1463C213.526 65.3414 213.845 66.2805 214.487 66.968C215.13 67.6554 216.024 68.0014 217.174 68.0014C218.962 68.0014 220.822 66.968 222.75 64.9011L222.889 59.6666L215.867 61.1808C214.307 61.5043 213.526 62.4883 213.526 64.1418V64.1463Z" fill="#7C154D"/>
<path d="M258.416 73.4387L258.83 54.5045C258.83 51.0627 257.36 49.3419 254.422 49.3419C252.449 49.3419 250.315 50.3528 248.019 52.3702V60.0805L248.432 73.4387H240.169L240.583 60.9072L240.237 43.6266L248.086 42.9391V47.5536H248.5C251.025 45.0734 253.779 43.4693 256.763 42.7324C259.975 42.7324 262.433 43.4918 264.131 45.006C265.83 46.5202 266.634 48.6769 266.54 51.4761L266.333 60.0805L266.679 73.4387H258.416Z" fill="#7C154D"/>
<path d="M197.669 31.8539L197.768 27.2349L197.669 16.5098H206.3L206.426 16.685L206.251 18.1498L202.643 18.0734L199.588 18.1003L199.538 23.1956L202.414 23.2225L204.988 23.1956L205.114 23.3214L204.961 24.7862L199.511 24.7592L199.484 27.0822L199.534 30.2858L202.513 30.3127L206.296 30.2139L206.422 30.3891L206.269 31.8539H197.665H197.669Z" fill="#939598"/>
<path d="M218.667 31.8553L218.011 30.6196L214.452 25.3716L210.768 30.723L210.161 31.8598H208.144L213.315 24.0866L208.319 16.5156H210.642L211.275 17.7018L214.605 22.6218L217.912 17.7018L218.545 16.5156H220.612L215.719 23.8574L220.994 31.8553H218.671H218.667Z" fill="#939598"/>
<path d="M224.466 31.8535L224.565 27.2345L224.466 16.5094L229.135 16.4824C230.667 16.4824 231.835 16.8643 232.644 17.6327C233.453 18.3965 233.857 19.5108 233.857 20.9756C233.857 22.692 233.349 24.0354 232.329 25.0014C231.314 25.9675 229.912 26.4527 228.128 26.4527H226.286L226.362 31.8535H224.471H224.466ZM231.885 21.1283C231.885 19.1109 230.833 18.0595 228.73 17.9741L226.385 18.0236L226.335 24.8891L228.834 24.9385C229.827 24.7723 230.581 24.3634 231.107 23.7164C231.628 23.0694 231.889 22.2067 231.889 21.1283H231.885Z" fill="#939598"/>
<path d="M249.575 23.8786C249.575 26.4846 248.973 28.4975 247.769 29.9084C246.565 31.3192 244.862 32.0292 242.66 32.0292C240.458 32.0292 238.949 31.3642 237.839 30.0342C236.729 28.7042 236.172 26.7946 236.172 24.3054C236.172 21.8162 236.765 19.7808 237.951 18.4014C239.137 17.022 240.831 16.3301 243.037 16.3301C245.244 16.3301 246.753 16.9771 247.881 18.2711C249.009 19.5652 249.57 21.4343 249.57 23.8741L249.575 23.8786ZM238.095 24.0808C238.095 26.2689 238.481 27.8865 239.254 28.9379C240.027 29.9893 241.204 30.515 242.786 30.515C245.998 30.515 247.607 28.4122 247.607 24.2066C247.607 22.0544 247.216 20.4683 246.434 19.4483C245.652 18.4329 244.471 17.9207 242.889 17.9207C239.695 17.9207 238.095 19.974 238.095 24.0763V24.0808Z" fill="#939598"/>
<path d="M253.259 31.8535L253.358 27.2345L253.259 16.5094L257.928 16.4824C259.46 16.4824 260.628 16.8509 261.437 17.5922C262.246 18.3336 262.65 19.4254 262.65 20.8722C262.65 21.9506 262.376 22.8942 261.832 23.7119C261.284 24.5297 260.498 25.1632 259.473 25.617C260.08 26.61 260.713 27.585 261.378 28.5421C262.043 29.4991 262.735 30.4606 263.459 31.4177V31.6468C263.207 31.7322 262.933 31.8176 262.636 31.8984C262.34 31.9838 262.025 32.0422 261.688 32.0737L261.437 31.9209C260.731 30.8605 260.084 29.8496 259.496 28.879C258.907 27.913 258.359 26.9829 257.856 26.0888H255.079L255.155 31.84H253.264L253.259 31.8535ZM257.977 24.6375C259.779 24.0983 260.677 22.8897 260.677 21.0025C260.677 19.1154 259.626 18.0595 257.523 17.9741L255.178 18.0236L255.128 24.5611L257.982 24.6375H257.977Z" fill="#939598"/>
<path d="M269.812 31.8545L269.938 27.2355L269.839 18.0245H268.276L265.548 18.1234L265.422 17.9212L265.575 16.5059H275.995L276.148 16.6811L275.995 18.1189L273.321 18.0201H271.758L271.659 27.0783L271.735 31.8455H269.817L269.812 31.8545Z" fill="#939598"/>
</svg>
