<svg width="24" height="24" viewBox="0 0 24 24" fill="none" xmlns="http://www.w3.org/2000/svg">
<path d="M8.07031 11.1328L2.25 6.25V18.7891L8.07031 13.9062C8.34375 13.6719 8.73438 13.7109 8.96875 13.9844C9.16406 14.2578 9.125 14.6484 8.89062 14.8438L2.91406 19.7656C2.71875 19.9219 2.44531 20 2.17188 20C1.54688 20 1 19.4922 1 18.75V6.28906C1 5.54688 1.54688 5 2.17188 5C2.44531 5 2.71875 5.11719 2.91406 5.27344L8.89062 10.1953C9.125 10.3906 9.16406 10.7812 8.96875 11.0547C8.73438 11.3281 8.34375 11.3672 8.07031 11.1328ZM20.5312 11.5234C20.8047 11.7578 21 12.1484 21 12.5C21 12.8906 20.8047 13.2812 20.5312 13.5547L12.9141 19.7656C12.7188 19.9219 12.4453 20 12.1719 20C11.7812 20 11 19.6875 11 18.75V6.28906C11 5.35156 11.7812 5 12.1719 5C12.4453 5 12.7188 5.11719 12.9141 5.3125L20.5312 11.5234ZM12.25 18.7891L19.7109 12.5L12.25 6.25V18.7891Z" fill="#FDF8F8"/>
</svg>
