<svg width="51" height="40" viewBox="0 0 51 40" fill="none" xmlns="http://www.w3.org/2000/svg">
<path d="M44.75 17.5C45.375 17.5 46 18.125 46 18.75V29.5312C46 31.25 44.8281 32.7344 43.1094 33.2031L27.4844 37.3438C26.9375 37.5 26.3906 37.5 25.9219 37.5C25.4531 37.5 24.9062 37.5 24.3594 37.3438L8.73438 33.2031C7.09375 32.7344 6 31.25 6 29.5312V18.75C6 18.125 6.54688 17.5 7.25 17.5C7.875 17.5 8.5 18.125 8.5 18.75V29.5312C8.5 30.0781 8.8125 30.625 9.35938 30.7031L24.75 34.7656V17.5C24.75 16.7969 25.2969 16.25 26 16.25C26.625 16.25 27.25 16.7969 27.25 17.5V34.8438L42.5625 30.7031C43.1094 30.5469 43.5 30.0781 43.5 29.4531V18.75C43.5 18.0469 44.0469 17.5 44.75 17.5ZM50.8438 12.0312C51 12.3438 51 12.7344 50.8438 13.125C50.6875 13.4375 50.375 13.6719 49.9844 13.75L33.7344 17.5C33.6562 17.5 33.5781 17.5 33.5 17.5C33.1094 17.5 32.7188 17.3438 32.4844 16.9531L26 8.35938L19.4375 17.0312C19.2031 17.3438 18.8125 17.5 18.5 17.5C18.3438 17.5 18.2656 17.5 18.1875 17.5L1.9375 13.75C1.54688 13.6719 1.23438 13.4375 1.07812 13.125C0.921875 12.7344 0.921875 12.4219 1.07812 12.0312L4.82812 3.28125C5.0625 2.8125 5.53125 2.5 6.07812 2.57812L26 5L45.8438 2.57812C46.3906 2.5 46.8594 2.8125 47.0938 3.28125L50.8438 12.0312ZM17.9531 14.9219L23.6562 7.26562L6.70312 5.15625L3.96875 11.6406L17.9531 14.9219ZM33.9688 14.9219L47.9531 11.6406L45.2188 5.15625L28.2656 7.26562L33.9688 14.9219Z" fill="#791A4D"/>
</svg>
