<svg width="24" height="25" viewBox="0 0 24 25" fill="none" xmlns="http://www.w3.org/2000/svg">
<path d="M19.9062 16.1543C20.6875 16.5059 21.1172 17.3652 20.9219 18.1855L20.1016 21.8574C19.9062 22.6777 19.2031 23.2246 18.3438 23.2246C8.77344 23.2246 1 15.4512 1 5.88086C1 5.02148 1.54688 4.31836 2.36719 4.16211L6.03906 3.30273C6.85938 3.10742 7.71875 3.53711 8.07031 4.31836L9.75 8.30273C10.0625 9.00586 9.86719 9.86523 9.28125 10.373L7.67969 11.6621C8.8125 13.6934 10.5312 15.4121 12.5625 16.5449L13.8906 14.9824C14.3594 14.3574 15.2188 14.1621 15.9219 14.4355L19.9062 16.1543ZM18.8516 21.584L19.7109 17.9121C19.7891 17.6387 19.6328 17.4043 19.3984 17.2871L15.4531 15.6074C15.2188 15.5293 14.9844 15.5684 14.8281 15.7637L13.2266 17.7168C13.0312 17.9512 12.7188 18.0293 12.4844 17.873C9.82812 16.584 7.64062 14.3965 6.35156 11.7793C6.19531 11.5059 6.27344 11.1934 6.50781 10.998L8.46094 9.39648C8.65625 9.24023 8.69531 9.00586 8.61719 8.77148L6.9375 4.82617C6.82031 4.63086 6.625 4.47461 6.42969 4.47461C6.39062 4.47461 6.35156 4.51367 6.3125 4.51367L2.64062 5.37305C2.40625 5.41211 2.25 5.60742 2.25 5.88086C2.25 14.748 9.47656 22.0137 18.3438 22.0137C18.6172 22.0137 18.8125 21.8184 18.8516 21.584Z" fill="#1F2120"/>
</svg>
