<svg width="24" height="24" viewBox="0 0 24 24" fill="none" xmlns="http://www.w3.org/2000/svg">
<path d="M20.1016 10.8984C20.6484 11.25 21 11.875 21 12.5C21 13.1641 20.6484 13.7891 20.1016 14.1016L8.85156 20.9766C8.53906 21.1719 8.1875 21.25 7.875 21.25C6.78125 21.25 6 20.3906 6 19.375V5.625C6 4.64844 6.78125 3.78906 7.83594 3.75C8.1875 3.75 8.53906 3.86719 8.85156 4.02344L20.1016 10.8984ZM19.4375 13.0469C19.6328 12.9297 19.75 12.7344 19.75 12.5C19.75 12.3047 19.6328 12.1094 19.3984 11.9922L8.1875 5.11719C8.07031 5.03906 7.95312 5.03906 7.875 5.03906C7.48438 5.03906 7.25 5.35156 7.25 5.625V19.375C7.25 19.6875 7.48438 20 7.875 20C7.95312 20 8.07031 20 8.22656 19.8828L19.4375 13.0469Z" fill="#FDF8F8"/>
</svg>
