<svg width="24" height="24" viewBox="0 0 24 24" fill="none" xmlns="http://www.w3.org/2000/svg">
<path d="M19.7891 5C20.4141 5 21 5.54688 21 6.28906V18.75C21 19.4922 20.4141 20 19.7891 20C19.5156 20 19.2422 19.9219 19.0469 19.7656L13.0703 14.8438C12.8359 14.6484 12.7969 14.2578 12.9922 13.9844C13.2266 13.7109 13.6172 13.6719 13.8906 13.9062L19.75 18.7891V6.25L13.8906 11.1328C13.6172 11.3672 13.2266 11.3281 12.9922 11.0547C12.7969 10.7812 12.8359 10.3906 13.0703 10.1953L19.0469 5.27344C19.2422 5.11719 19.5156 5 19.7891 5ZM9.78906 5C10.1797 5 10.9609 5.35156 11 6.28906V18.75C11 19.6875 10.1797 20 9.78906 20C9.51562 20 9.24219 19.9219 9.04688 19.7266L1.42969 13.5156C1.15625 13.2812 1 12.8906 1 12.5C1 12.1484 1.15625 11.7578 1.42969 11.5234L9.04688 5.27344C9.24219 5.11719 9.51562 5 9.78906 5ZM9.75 18.7891V6.25L2.25 12.5L9.75 18.7891Z" fill="#FDF8F8"/>
</svg>
