<svg width="41" height="40" viewBox="0 0 41 40" fill="none" xmlns="http://www.w3.org/2000/svg">
<path d="M40.4219 20C40.4219 22.8125 38.9375 25.3906 36.5938 26.7188C37.2969 29.375 36.5156 32.1875 34.5625 34.1406C32.5312 36.25 29.7188 36.875 27.1406 36.1719C25.8125 38.5156 23.2344 40 20.4219 40C17.6875 40 15.1094 38.5156 13.7812 36.1719C11.2812 36.875 8.39062 36.25 6.28125 34.1406C4.32812 32.1875 3.625 29.375 4.32812 26.7188C1.98438 25.3906 0.421875 22.8125 0.421875 20C0.421875 17.2656 1.98438 14.6875 4.32812 13.3594C3.625 10.7031 4.40625 7.89062 6.28125 5.85938C8.23438 3.90625 11.125 3.20312 13.7812 3.90625C15.1094 1.5625 17.6875 0 20.4219 0C23.2344 0 25.8125 1.5625 27.1406 3.90625C29.7969 3.20312 32.6094 3.90625 34.5625 5.85938C36.5156 7.89062 37.2969 10.7031 36.5938 13.3594C38.9375 14.6875 40.4219 17.2656 40.4219 20ZM33.3125 25.3906C34.0938 25.0781 38 24.1406 38 20C38 16.0156 34.3281 15.0781 33.3125 14.6875C33.7031 13.9844 35.7344 10.5469 32.8438 7.65625C30.0312 4.84375 26.75 6.71875 25.8125 7.1875C25.5 6.40625 24.5625 2.5 20.5 2.5C16.5156 2.5 15.5 6.17188 15.1094 7.1875C14.4062 6.79688 10.9688 4.76562 8.07812 7.65625C5.26562 10.4688 7.14062 13.75 7.60938 14.6875C6.82812 15 3 15.9375 3 20C3 23.9844 6.67188 25 7.60938 25.3906C7.21875 26.0938 5.1875 29.5312 8.07812 32.4219C10.3438 34.6875 12.6094 34.0625 15.1094 32.8906C15.4219 33.6719 16.3594 37.5 20.5 37.5C24.4844 37.5 25.4219 33.8281 25.8125 32.8906C28.3125 34.0625 30.5781 34.6875 32.8438 32.4219C35.6562 29.6094 33.7812 26.3281 33.3125 25.3906ZM20.8125 18.8281C23.1562 19.4531 26.6719 20.3906 26.0469 24.0625C25.6562 25.9375 24.0156 27.1875 21.75 27.5V28.75C21.75 29.4531 21.125 30 20.5 30C19.7969 30 19.25 29.4531 19.25 28.75V27.4219C18.5469 27.3438 18 27.1875 15.6562 26.4062C15.0312 26.25 14.6406 25.4688 14.875 24.8438C15.1094 24.2188 15.8125 23.8281 16.5156 24.0625C18.4688 24.7656 18.9375 24.8438 19.4844 24.9219C21.3594 25.2344 23.3125 24.9219 23.5469 23.5938C23.7812 22.5 23.0781 22.0312 20.1094 21.25L19.5625 21.0938C17.8438 20.625 14.25 19.6094 14.875 16.0156C15.2656 14.1406 16.9062 12.8906 19.25 12.5781V11.25C19.25 10.625 19.7969 10 20.5 10C21.125 10 21.75 10.625 21.75 11.25V12.6562C22.375 12.7344 23.1562 12.9688 24.1719 13.2812C24.7969 13.5156 25.1875 14.2188 24.9531 14.8438C24.7188 15.4688 24.0156 15.8594 23.3906 15.625C22.5312 15.3906 21.9062 15.2344 21.3594 15.1562C19.5625 14.8438 17.6094 15.1562 17.375 16.4844C17.2188 17.4219 17.5312 17.8906 20.1875 18.6719L20.8125 18.8281Z" fill="#791A4D"/>
</svg>
