<svg viewBox="0 0 40 40" fill="none" xmlns="http://www.w3.org/2000/svg">
<path d="M26.5 28.0469C25.4062 28.6719 23.7656 28.0469 22.5156 28.3594C21.3438 28.6719 20.25 30 19 30C17.6719 30 16.5781 28.6719 15.4062 28.3594C14.1562 28.0469 12.5156 28.6719 11.4219 28.0469C10.3281 27.4219 10.0938 25.7031 9.23438 24.7656C8.29688 23.9062 6.57812 23.5938 5.95312 22.5781C5.32812 21.4844 5.95312 19.8438 5.64062 18.5938C5.32812 17.4219 4 16.3281 4 15C4 13.75 5.32812 12.6562 5.64062 11.4844C5.95312 10.2344 5.32812 8.59375 5.95312 7.5C6.57812 6.40625 8.29688 6.17188 9.23438 5.3125C10.0938 4.375 10.4062 2.65625 11.4219 2.03125C12.5156 1.40625 14.1562 2.03125 15.4062 1.71875C16.5781 1.40625 17.6719 0 19 0C20.25 0 21.3438 1.40625 22.4375 1.71875C23.6875 2.03125 25.3281 1.40625 26.4219 2.03125C27.5156 2.65625 27.75 4.375 28.6875 5.3125C29.5469 6.17188 31.2656 6.40625 31.8906 7.5C32.5156 8.59375 31.8906 10.2344 32.2031 11.4844C32.5156 12.6562 33.9219 13.75 33.9219 15C33.9219 16.3281 32.5938 17.4219 32.2812 18.5938C31.9688 19.8438 32.5938 21.4844 31.9688 22.5781C31.3438 23.6719 29.625 23.9062 28.6875 24.7656C27.8281 25.7031 27.5156 27.4219 26.5 28.0469ZM18.9219 27.5C19.625 27.1875 20.5625 26.3281 21.8906 25.9375C23.2188 25.625 24.4688 25.8594 25.1719 25.8594C25.5625 25.2344 26.0312 23.9844 26.9688 23.0469C27.9062 22.1094 29.1562 21.6406 29.7812 21.25C29.7812 20.4688 29.5469 19.2188 29.8594 17.9688C30.25 16.6406 31.1094 15.7031 31.4219 15.0781C31.1094 14.375 30.25 13.4375 29.8594 12.1094C29.5469 10.7812 29.7812 9.53125 29.7812 8.82812C29.1562 8.4375 27.9062 7.96875 26.9688 7.03125C26.0312 6.09375 25.5625 4.84375 25.1719 4.21875C24.4688 4.21875 23.2188 4.45312 21.8906 4.14062C20.5625 3.75 19.625 2.89062 18.9219 2.57812C18.2969 2.89062 17.3594 3.75 16.0312 4.14062C14.7031 4.45312 13.4531 4.21875 12.75 4.21875C12.3594 4.84375 11.8906 6.09375 10.9531 7.03125C10.0156 7.96875 8.76562 8.4375 8.14062 8.82812C8.14062 9.53125 8.375 10.7812 8.0625 12.1094C7.67188 13.4375 6.8125 14.375 6.5 15.0781C6.8125 15.7031 7.67188 16.6406 8.0625 17.9688C8.375 19.2969 8.14062 20.5469 8.14062 21.25C8.6875 21.6406 9.9375 22.1094 10.875 23.0469C11.8125 23.9844 12.2812 25.2344 12.6719 25.7812C13.375 25.8594 14.625 25.625 15.9531 25.9375C17.2812 26.3281 18.2969 27.1875 18.9219 27.5ZM25.7969 15C25.7969 18.8281 22.5938 21.875 18.9219 21.875C15.1719 21.875 12.125 18.8281 12.125 15C12.125 11.25 15.25 8.125 19 8.125C22.6719 8.125 25.7969 11.25 25.7969 15ZM19 19.375C21.3438 19.375 23.2969 17.4219 23.2969 15C23.2969 12.6562 21.2656 10.625 18.9219 10.625C16.5781 10.625 14.625 12.6562 14.625 15C14.625 17.4219 16.5781 19.375 19 19.375ZM31.8906 28.9844L33.7656 33.75C34.1562 34.6094 34 35.7031 33.375 36.4062C32.75 37.1875 31.7344 37.5 30.7969 37.3438L29.0781 36.9531L28.2969 38.5938C27.8281 39.4531 26.9688 40 25.9531 40C24.7812 40 23.9219 39.375 23.5312 38.3594L21.5781 33.5938C21.2656 32.9688 21.5781 32.2656 22.2031 31.9531C22.9062 31.7188 23.6094 32.0312 23.8438 32.6562L25.7969 37.4219L27.75 34.1406L31.4219 34.6875L29.5469 29.8438C29.3125 29.2188 29.625 28.5156 30.25 28.2812C30.875 27.9688 31.6562 28.2812 31.8906 28.9844ZM15.7188 31.9531C16.3438 32.2656 16.6562 32.9688 16.3438 33.5938L14.3906 38.3594C14 39.375 13.1406 40 12.0469 40C10.9531 40 10.0938 39.4531 9.625 38.5938L8.84375 36.9531L7.125 37.3438C6.1875 37.5 5.17188 37.1875 4.54688 36.4062C3.92188 35.7031 3.76562 34.6094 4.15625 33.75L6.03125 28.9844C6.26562 28.2812 7.04688 27.9688 7.67188 28.2812C8.29688 28.5156 8.60938 29.2188 8.375 29.8438L6.5 34.6875L10.1719 34.1406L12.125 37.4219L14.0781 32.6562C14.3125 32.0312 15.0156 31.7188 15.7188 31.9531Z" fill="#791A4D"/>
</svg>
