<svg width="132" height="126" viewBox="0 0 132 126" fill="none" xmlns="http://www.w3.org/2000/svg">
<g id="Group">
<path id="Vector" d="M65.7246 109.999C39.1818 109.999 17.5918 88.7032 17.5918 62.522C17.5918 36.3408 39.1818 15.0508 65.7246 15.0508C92.2674 15.0508 113.857 36.3466 113.857 62.5278C113.857 88.709 92.2674 110.005 65.7246 110.005V109.999ZM65.7246 30.7932C47.9862 30.7932 33.5516 45.0311 33.5516 62.5278C33.5516 80.0245 47.9862 94.2624 65.7246 94.2624C83.463 94.2624 97.8975 80.0245 97.8975 62.5278C97.8975 45.0311 83.463 30.7932 65.7246 30.7932Z" fill="#A8AAAD"/>
<path id="Vector_2" d="M63.8988 125.05C63.1921 112.276 64.3935 99.4268 66.7315 86.8794C72.6325 55.4352 88.4275 25.0541 117.026 8.35903C121.613 5.61718 126.484 3.311 131.443 1.33594C128.804 2.85209 126.195 4.39148 123.722 6.11675C118.769 9.46274 114.14 13.3432 109.941 17.5779C87.0435 40.6339 79.7526 74.4946 81.6607 105.84C81.9905 111.115 82.5264 116.348 83.4805 121.524L83.5747 121.995C83.6042 122.128 83.6395 122.326 83.6572 122.361L63.8929 125.045L63.8988 125.05Z" fill="#7C154D"/>
<path id="Vector_3" d="M67.5437 0C68.2504 12.774 67.049 25.6235 64.711 38.171C58.81 69.6152 43.015 99.9963 14.4169 116.691C9.82915 119.433 4.95874 121.739 0 123.714C2.63838 122.198 5.24732 120.659 7.7208 118.934C12.6737 115.588 17.3026 111.707 21.5016 107.472C44.399 84.4165 51.6899 50.5558 49.7818 19.2104C49.452 13.9358 48.9161 8.70189 47.962 3.52607L47.8678 3.05554C47.8383 2.92193 47.803 2.72443 47.7853 2.68957L67.5437 0Z" fill="#7C154D"/>
</g>
</svg>
