<svg width="50" height="40" viewBox="0 0 50 40" fill="none" xmlns="http://www.w3.org/2000/svg">
<path d="M48.75 30C49.375 30 50 30.625 50 31.25C50 31.9531 49.375 32.5 48.75 32.5H45C45 36.6406 41.5625 40 37.5 40C33.3594 40 30 36.6406 30 32.5H20C20 36.6406 16.5625 40 12.5 40C8.35938 40 5 36.6406 5 32.5C2.1875 32.5 0 30.3125 0 27.5V5C0 2.26562 2.1875 0 5 0H27.5C30.2344 0 32.5 2.26562 32.5 5V7.5H37.5781C38.6719 7.5 39.6875 8.04688 40.3906 8.82812L45.9375 15.3125C46.9531 16.4844 47.5 17.8906 47.5 19.375V30H48.75ZM32.5 10V17.5H44.4531C44.375 17.3438 44.2188 17.1094 44.0625 16.9531L38.5156 10.4688C38.2812 10.2344 37.8906 10 37.5781 10H32.5ZM12.5 37.5C15.2344 37.5 17.5 35.3125 17.5 32.5C17.5 29.7656 15.2344 27.5 12.5 27.5C9.6875 27.5 7.5 29.7656 7.5 32.5C7.5 35.3125 9.6875 37.5 12.5 37.5ZM37.5 37.5C40.2344 37.5 42.5 35.3125 42.5 32.5C42.5 29.7656 40.2344 27.5 37.5 27.5C34.6875 27.5 32.5 29.7656 32.5 32.5C32.5 35.3125 34.6875 37.5 37.5 37.5ZM45 30V20H32.5V22.5C32.5 23.2031 31.875 23.75 31.25 23.75C30.5469 23.75 30 23.2031 30 22.5V5C30 3.67188 28.8281 2.5 27.5 2.5H5C3.59375 2.5 2.5 3.67188 2.5 5V27.5C2.5 28.9062 3.59375 30 5 30H5.39062C6.40625 27.1094 9.21875 25 12.5 25C15.7031 25 18.5156 27.1094 19.5312 30H30.3906C31.4062 27.1094 34.2188 25 37.5 25C40.7031 25 43.5156 27.1094 44.5312 30H45Z" fill="#791A4D"/>
</svg>
