<svg width="24" height="24" viewBox="0 0 24 24" fill="none" xmlns="http://www.w3.org/2000/svg">
<path d="M13.2578 3.86719C13.6875 4.0625 14 4.53125 14 5V20C14 20.5078 13.6875 20.9375 13.2578 21.1719C13.0625 21.25 12.9062 21.25 12.75 21.25C12.4375 21.25 12.125 21.1719 11.8906 20.8594L6.61719 16.1719H3.375C2.32031 16.1719 1.5 15.3516 1.5 14.3359V10.625C1.5 9.60938 2.32031 8.75 3.375 8.75H6.61719L11.8906 4.10156C12.125 3.86719 12.4375 3.75 12.75 3.75C12.9062 3.75 13.0625 3.78906 13.2578 3.86719ZM12.7109 20L12.6719 5.03906L7.08594 10H3.375C3.02344 10 2.75 10.2734 2.75 10.625V14.375C2.75 14.6875 3.02344 15 3.375 15H7.08594L12.7109 20ZM19.4297 6.36719C21.5 7.77344 22.75 10.0391 22.75 12.5C22.75 14.9609 21.5 17.2656 19.4297 18.6719C19.3125 18.75 19.1953 18.75 19.0781 18.75C18.8828 18.75 18.6875 18.6719 18.5703 18.4766C18.375 18.2031 18.4531 17.8125 18.7266 17.6172C20.4453 16.4844 21.5 14.5703 21.5 12.5C21.5 10.4688 20.4453 8.55469 18.7266 7.42188C18.4531 7.22656 18.375 6.83594 18.5703 6.5625C18.7656 6.25 19.1562 6.17188 19.4297 6.36719ZM17.3594 9.49219C18.375 10.1953 19 11.3281 19 12.5C19 13.7109 18.375 14.8438 17.3594 15.5469C17.2422 15.625 17.125 15.625 17.0078 15.625C16.8125 15.625 16.6172 15.5469 16.5 15.3516C16.3047 15.0781 16.3828 14.6875 16.6562 14.4922C17.3203 14.0625 17.75 13.3203 17.75 12.5C17.75 11.7188 17.3203 10.9766 16.6562 10.5469C16.3828 10.3516 16.3047 9.96094 16.5 9.6875C16.6953 9.375 17.0859 9.29688 17.3594 9.49219Z" fill="#FDF8F8"/>
</svg>
