<svg width="400" height="400" viewBox="0 0 400 400" fill="none" xmlns="http://www.w3.org/2000/svg">
<path d="M250.325 252.245C259.553 251.143 261.825 239.996 262.164 227.117C262.503 214.238 282.67 210.068 289.335 206.901C298.849 202.381 302.28 199.831 304.317 177.621C303.63 146.467 315.434 126.108 329.38 127.533C343.51 128.977 348.804 143.328 345.188 156.628C343.39 163.245 349.287 165.45 351.262 171.707C352.063 174.242 351.917 176.285 351.723 178.269C350.59 189.838 334.511 191.105 330.768 202.494C327.454 212.58 338.093 217.582 334.567 226.667C331.372 234.897 321.814 232.926 303.394 246.919C301.654 248.241 300.171 251.165 294.992 253.931C288.895 257.187 278.475 261.455 273.691 267.558C267.373 267.126 261.011 266.594 254.779 267.013C248.74 266.057 242.752 264.787 236.821 263.288C239.195 258.394 243.228 253.093 250.325 252.245Z" fill="url(#paint0_linear_125_53182)"/>
<mask id="mask0_125_53182" style="mask-type:luminance" maskUnits="userSpaceOnUse" x="236" y="127" width="116" height="141">
<path d="M250.325 252.245C259.553 251.143 261.825 239.996 262.164 227.117C262.503 214.238 282.67 210.068 289.335 206.901C298.849 202.381 302.28 199.831 304.317 177.621C303.63 146.467 315.434 126.108 329.38 127.533C343.51 128.977 348.804 143.328 345.188 156.628C343.39 163.245 349.287 165.45 351.262 171.707C352.063 174.242 351.917 176.285 351.723 178.269C350.59 189.838 334.511 191.105 330.768 202.494C327.454 212.58 338.093 217.582 334.567 226.667C331.372 234.897 321.814 232.926 303.394 246.919C301.654 248.241 300.171 251.165 294.992 253.931C288.895 257.187 278.475 261.455 273.691 267.558C267.373 267.126 261.011 266.594 254.779 267.013C248.74 266.057 242.752 264.787 236.821 263.288C239.195 258.394 243.228 253.093 250.325 252.245Z" fill="white"/>
</mask>
<g mask="url(#mask0_125_53182)">
<g opacity="0.5">
<path d="M242.879 282.811L243.231 283.213C245.469 281.295 247.701 279.331 249.864 277.375C265.879 262.895 279.845 247.332 291.377 231.12C301.147 217.382 309.31 202.987 315.638 188.333C320.727 176.549 324.662 164.535 327.335 152.624C329.213 144.251 330.453 136.015 331.019 128.145C331.118 126.774 331.142 125.36 331.165 123.992C331.196 122.17 331.228 120.286 331.438 118.489L330.927 118.391C330.714 120.213 330.682 122.11 330.651 123.944C330.628 125.305 330.604 126.712 330.506 128.069C329.942 135.914 328.705 144.126 326.832 152.475C324.166 164.356 320.24 176.342 315.163 188.099C308.848 202.722 300.702 217.089 290.95 230.8C279.438 246.986 265.494 262.523 249.504 276.981C247.344 278.934 245.115 280.895 242.879 282.811Z" fill="#FCFDFE"/>
<path d="M306.703 205.549L307.153 205.832C317.822 187.347 352.542 175.013 352.891 174.89L352.689 174.402C352.338 174.525 317.458 186.916 306.703 205.549Z" fill="#FCFDFE"/>
<path d="M272.119 254.279L272.537 254.61C281.324 243.014 274.524 214.318 274.455 214.029L273.955 214.114C274.024 214.4 280.769 242.864 272.119 254.279Z" fill="#FCFDFE"/>
<path d="M266.53 260.382L266.889 260.777C273.953 254.449 287.261 249.871 304.362 247.888C305.222 247.788 305.222 247.788 305.293 247.726L304.939 247.327L305.116 247.527L305.022 247.281C304.966 247.295 304.642 247.332 304.265 247.376C287.066 249.371 273.665 253.99 266.53 260.382Z" fill="#FCFDFE"/>
<path d="M246.911 279.249L247.36 279.533C252.647 270.464 246.614 255.082 246.552 254.928L246.077 255.086C246.137 255.238 252.077 270.387 246.911 279.249Z" fill="#FCFDFE"/>
<path d="M325.141 159.455L325.604 159.713C330.937 149.059 339.107 139.299 341.792 136.092C342.442 135.316 342.67 135.042 342.731 134.931L342.278 134.654C342.23 134.738 341.858 135.182 341.388 135.744C338.694 138.961 330.499 148.753 325.141 159.455Z" fill="#FCFDFE"/>
<path d="M319.133 178.262L319.642 178.378C321.362 167.125 307.616 147.582 307.03 146.756L306.618 147.032C306.76 147.233 320.822 167.219 319.133 178.262Z" fill="#FCFDFE"/>
</g>
</g>
<path d="M240.228 245.084C241.62 246.045 245.921 238.274 256.95 233.27C259.706 232.019 274.261 224.158 283.817 232.119C285.672 233.664 287.528 235.209 289.383 236.755C294.544 234.1 298.918 230.642 294.847 224.213C288.525 214.228 301.172 200.081 308.052 197.228C316.567 193.696 336.199 185.064 326.665 169.49C318.728 156.525 310.988 149.606 322.278 135.831C333.568 122.055 333.429 107.036 319.986 96.4314C305.84 85.2719 310.171 58.8158 294.078 54.5654C266.036 47.1597 256.794 91.5052 272.348 120.661C287.903 149.816 267.37 145.704 256.879 155.857C255.958 156.855 254.608 158.473 253.377 160.685C245.798 174.304 255.877 186.839 256.034 203.684C256.247 226.657 237.883 243.467 240.228 245.084Z" fill="url(#paint1_linear_125_53182)"/>
<mask id="mask1_125_53182" style="mask-type:luminance" maskUnits="userSpaceOnUse" x="252" y="53" width="79" height="187">
<path d="M256.119 213.121L285.496 239.008C290.723 236.633 299.394 231.395 294.847 224.213C288.525 214.228 301.172 200.081 308.052 197.228C316.566 193.696 336.199 185.064 326.664 169.49C318.727 156.525 310.988 149.607 322.278 135.831C333.568 122.055 333.429 107.036 319.986 96.4313C305.84 85.2719 310.171 58.8158 294.078 54.5654C266.036 47.1595 256.794 91.505 272.348 120.661C287.902 149.816 267.37 145.704 256.878 155.857C242.556 169.719 266.627 185.552 266.935 196.306C267.177 204.737 260.639 210.225 256.119 213.121Z" fill="white"/>
</mask>
<g mask="url(#mask1_125_53182)">
<g opacity="0.5">
<path d="M273.858 220.994L274.586 221.43C304.202 170.868 307.822 105.098 284.034 49.7871L283.268 50.0693C306.956 105.147 303.35 170.642 273.858 220.994Z" fill="#FCFDFE"/>
<path d="M287.517 191.94L288.151 192.504C303.694 175.496 331.409 176.1 331.687 176.109L331.666 175.292C331.385 175.283 303.305 174.664 287.517 191.94Z" fill="#FCFDFE"/>
<path d="M279.039 211.534L279.854 211.749C284.95 188.778 253.347 156.803 253.027 156.482L252.447 157.038C252.764 157.355 284.038 189 279.039 211.534Z" fill="#FCFDFE"/>
<path d="M298.662 135.082L299.459 135.364C305.095 117.633 331.517 106.12 331.783 106.006L331.415 105.254C331.146 105.369 304.402 117.023 298.662 135.082Z" fill="#FCFDFE"/>
<path d="M296.684 97.1327L297.477 96.9237C290.709 76.12 264.554 61.0482 264.29 60.8984L263.902 61.5999C264.163 61.7476 290.022 76.6532 296.684 97.1327Z" fill="#FCFDFE"/>
</g>
</g>
<path d="M71.9932 259.423C64.3725 259.237 58.4146 253.062 58.4146 245.365V86.084C58.4146 78.2156 64.7468 72.0488 72.5427 72.3379L270.703 79.6853C270.778 79.6881 270.831 79.6903 270.905 79.6944C277.597 80.0718 283.007 86.2504 283.007 93.4697V238.408C283.007 245.588 277.631 251.635 270.99 251.888L72.8581 259.416C72.5637 259.427 72.2867 259.43 71.9932 259.423Z" fill="url(#paint2_linear_125_53182)"/>
<path d="M74.8002 259.491C67.1867 259.305 61.2344 253.133 61.2344 245.44V86.2341C61.2344 78.3694 67.5606 72.2053 75.3493 72.4941L273.327 79.833C273.401 79.8358 273.454 79.8379 273.528 79.8422C280.214 80.2192 285.62 86.3949 285.62 93.6109V238.483C285.62 245.66 280.249 251.705 273.614 251.957L75.6646 259.485C75.3701 259.496 75.0934 259.498 74.8002 259.491Z" fill="#791A4D"/>
<path d="M273.388 248.22L75.4021 255.62C69.7826 255.83 65.208 251.32 65.208 245.546V86.4458C65.208 80.6717 69.7827 76.1574 75.4021 76.3622L273.388 83.5735C278.107 83.7453 281.919 88.1492 281.919 93.4104V238.375C281.919 243.637 278.107 248.044 273.388 248.22Z" fill="#FDF8F8"/>
<path d="M123.876 219.66L92.4615 220.384C92.0856 220.392 91.7808 220.085 91.7808 219.696V211.975C91.7808 211.587 92.0856 211.266 92.4615 211.259L123.876 210.654C124.242 210.647 124.538 210.952 124.538 211.335V218.952C124.538 219.335 124.242 219.652 123.876 219.66Z" fill="#791A4D"/>
<path d="M214.333 234.051L92.4615 237.734C92.0856 237.745 91.7808 237.44 91.7808 237.051V229.33C91.7808 228.942 92.0856 228.619 92.4615 228.609L214.333 225.387C214.672 225.378 214.947 225.669 214.947 226.038V233.365C214.947 233.733 214.672 234.041 214.333 234.051Z" fill="#D8DEE8"/>
<path d="M90.5348 117.025C88.811 118.072 87.1497 120.405 87.5273 123C87.9105 125.634 90.217 127.331 92.0357 127.898C94.593 128.695 95.4355 127.023 98.1868 127.305C102.351 127.733 105.591 132.099 106.943 135.31C108.273 138.467 107.236 139.219 108.095 142.847C109.604 149.22 114.281 153.154 118.737 156.902C122.448 160.023 128.107 163.806 129.124 162.698C129.488 162.302 129.16 161.386 128.962 160.834C128.177 158.642 126.385 158.13 123.942 156.07C122.204 154.605 120.011 152.755 120.366 151.294C120.716 149.855 123.495 148.981 125.564 149.627C127.636 150.274 128.749 152.369 129.286 153.378C129.744 154.241 129.668 155.358 130.093 155.415C130.387 155.455 130.713 155.003 130.86 154.614C131.239 153.612 130.577 152.638 130.335 151.859C129.78 150.064 131.096 148.142 132.405 146.229C134.595 143.03 135.877 143.018 139.261 139.308C141.523 136.827 142.656 135.551 142.78 133.73C142.992 130.606 140.436 128.241 140.008 127.845C137.941 125.933 134.435 124.596 132.942 125.93C131.603 127.127 133.013 129.465 131.438 131.21C130.337 132.43 128.414 132.655 126.914 132.163C124.795 131.469 123.577 129.364 123.455 127.473C123.431 127.1 123.32 125.376 124.429 124.205C124.745 123.871 125.514 123.209 128.1 123.138C131.733 123.037 132.49 124.284 134.659 123.816C136.466 123.426 138.646 121.975 138.619 120.509C138.589 118.792 135.559 118.564 132.083 114.632C130.73 113.101 129.629 111.821 129.716 110.177C129.839 107.862 132.249 106.086 132.727 105.734C134.602 104.351 136.266 103.231 136.266 103.231C136.734 102.916 137.414 102.464 137.336 102.02C137.285 101.728 136.919 101.521 136.266 101.316C134.202 100.67 132.62 100.993 132.62 100.993C130.164 101.493 129.381 102.718 126.374 104.331C125.159 104.982 123.109 106.082 120.312 106.671C117.12 107.344 116.022 106.708 114.437 107.892C112.908 109.035 113.39 110.029 111.817 111.813C110.169 113.682 108.154 114.276 105.021 115.2C103.82 115.554 101.394 116.187 98.0761 116.43C93.3459 116.776 92.3454 115.924 90.5348 117.025Z" fill="#791A4D"/>
<path d="M142.567 102.945C139.234 103.783 136.335 104.511 135.731 106.596C135.417 107.68 135.709 109.183 136.588 109.996C138.335 111.613 140.971 109.18 142.886 110.591C143.911 111.346 143.523 112.311 144.695 117.704C145.477 121.301 146.119 123.031 147.35 124.596C148.048 125.483 149.026 126.727 149.999 126.545C151.44 126.275 150.894 123.245 153.17 121.116C153.968 120.369 154.114 120.669 157.91 118.861C160.124 117.806 161.235 117.27 161.479 116.813C162.728 114.48 159.411 111.547 160.745 108.772C160.997 108.249 161.031 108.527 162.736 106.369C164.695 103.89 164.671 103.495 164.619 103.3C164.402 102.472 162.945 102.373 159.171 101.818C152.901 100.896 152.393 100.504 150.528 100.914C149.29 101.186 148.961 101.481 146.289 102.145C144.202 102.664 143.969 102.593 142.567 102.945Z" fill="#791A4D"/>
<path d="M134.123 162.702C132.277 164.11 131.91 166.56 131.761 167.553C131.393 170.01 132.082 171.618 133.372 175.671C134.938 180.594 135.721 183.053 135.838 184.447C136.021 186.611 135.641 186.99 134.123 195.51C132.994 201.848 132.874 203.495 133.909 204.646C135.431 206.338 138.703 206.125 138.834 205.688C138.897 205.476 138.191 205.297 137.658 204.583C136.47 202.991 137.325 200.332 137.551 199.631C138.44 196.866 140.139 195.674 142.887 192.925C146.128 189.682 148.239 187.571 149.788 184.444C150.557 182.89 152.198 179.466 151.692 175.028C151.59 174.133 151.163 171.114 149.047 168.093C146.298 164.171 142.588 162.939 141.502 162.597C139.388 161.93 136.379 160.982 134.123 162.702Z" fill="#791A4D"/>
<path d="M165.56 147.267C164.366 149.647 163.045 152.279 162.527 154.708C162.064 156.882 161.621 161.816 163.992 163.731C166.137 165.463 168.61 163.128 171.602 165.066C173.128 166.055 173.8 167.515 174.611 169.277C176.355 173.064 175.523 175.155 176.268 180.015C176.619 182.299 177.731 189.555 180.504 190.046C182.816 190.456 185.331 185.992 185.751 185.247C186.866 183.267 187.296 181.212 188.109 177.184C189.206 171.753 188.798 170.993 189.952 169.468C191.436 167.505 193.234 167.281 193.628 165.394C193.917 164.007 193.227 162.756 192.812 161.985C191.279 159.137 189.142 159.443 187.699 156.69C186.87 155.107 186.646 153.229 186.982 153.05C187.282 152.889 188.115 154.041 188.519 154.6C189.759 156.316 189.607 156.934 190.361 157.8C191.884 159.55 194.454 159.265 194.647 159.241C195.825 159.092 197.947 158.39 198.207 156.946C198.406 155.834 197.439 154.641 196.275 153.207C195.337 152.049 194.634 151.551 194.749 151.332C194.864 151.11 195.699 151.404 197.902 152.228C200.292 153.122 201.485 153.568 201.654 153.672C202.458 154.169 203.142 154.839 205.394 158.83C207.674 162.872 208.504 164.902 209.021 164.735C209.279 164.652 209.234 164.098 209.424 162.224C209.707 159.423 209.862 158.001 210.529 156.989C211.092 156.134 212.295 154.979 213.539 155.146C214.286 155.247 215.181 156.49 216.941 158.969C218.674 161.411 219.259 162.241 220.432 162.889C221.048 163.229 222.151 163.838 223.019 163.325C223.982 162.756 224.313 161.007 223.913 159.746C223.429 158.22 222.085 158.069 222.124 157.137C222.18 155.807 224.961 154.944 225.203 154.871C226.996 154.331 227.455 154.952 228.373 154.343C229.736 153.439 230.297 151.027 229.954 149.158C229.601 147.232 228.406 146.515 228.768 145.686C229.073 144.988 230.03 145.241 231.928 144.74C233.337 144.367 235.416 143.818 236.553 142.084C237.229 141.052 237.349 139.941 237.534 138.212C237.565 137.925 237.699 136.595 237.534 134.762C237.306 132.223 236.802 132.04 237.044 131.304C237.573 129.691 240.126 130.176 244.967 128.735C247.734 127.911 249.731 126.908 249.927 127.313C250.172 127.82 246.938 129.216 246.72 131.877C246.555 133.893 248.177 135.954 248.859 135.77C249.422 135.618 249.015 134.023 250.024 131.711C250.395 130.86 250.959 129.568 252.157 128.742C253.594 127.752 254.442 128.467 255.735 127.409C256.769 126.563 256.508 125.874 257.375 124.978C259.338 122.949 262.644 124.45 262.857 123.69C263.053 122.987 260.504 120.724 257.182 120.165C254.226 119.668 253.771 121.041 250.412 120.995C248.504 120.97 246.191 120.097 241.55 118.347C238.927 117.358 237.56 116.691 235.177 116.49C233.518 116.349 233.468 116.613 231.731 116.416C229.759 116.193 227.316 115.916 225.402 114.113C223.9 112.698 224.359 111.884 223.119 111.024C221.116 109.636 218.373 110.688 216.042 111.619C213.564 112.609 211.804 113.84 208.82 115.928C205.348 118.357 204.184 119.575 202.262 119.292C200.825 119.081 200.53 118.262 198.917 118.239C197.612 118.221 197.202 118.748 194.545 119.909C191.974 121.032 190.664 121.59 189.543 121.353C187.806 120.986 187.739 119.69 185.854 118.857C183.842 117.969 181.922 118.562 179.576 119.286C176.676 120.181 173.821 121.062 172.433 123.694C170.963 126.482 172.326 128.982 170.667 130.212C169.289 131.232 167.878 129.862 166.604 130.93C165.073 132.213 165.528 135.516 165.769 137.258C166.243 140.691 167.42 141.546 167.021 143.943C166.845 145.005 166.532 145.331 165.56 147.267Z" fill="#791A4D"/>
<path d="M193.627 176.054C192.909 175.978 191.707 179.072 191.995 182.001C192.012 182.176 192.249 184.448 192.913 184.523C193.531 184.594 194.173 182.729 194.239 182.534C194.347 182.215 194.671 181.172 194.545 179.456C194.509 178.976 194.3 176.126 193.627 176.054Z" fill="#791A4D"/>
<path d="M219.336 168.866C219.284 169.001 219.486 169.231 220.051 169.719C221.542 171.007 222.287 171.65 223.516 172.113C224.576 172.513 227.213 173.237 227.779 172.208C228.142 171.548 227.621 170.226 226.789 169.611C225.902 168.955 225.236 169.525 223.118 169.401C220.923 169.274 219.465 168.535 219.336 168.866Z" fill="#791A4D"/>
<path d="M226.789 163.219C226.351 163.295 226.463 164.232 225.6 166.254C225.197 167.197 224.978 167.448 225.104 167.772C225.381 168.486 227.049 168.829 227.878 167.985C228.651 167.197 228.299 165.776 228.175 165.277C227.94 164.333 227.301 163.131 226.789 163.219Z" fill="#791A4D"/>
<path d="M235.668 171.103C235.998 171.625 236.556 172.271 237.927 172.93C238.404 173.159 241.933 174.856 242.82 173.558C243.181 173.029 243.004 172.152 242.722 171.622C242.286 170.801 241.489 170.605 240.18 170.229C236.28 169.11 235.397 168.567 235.079 169.054C234.721 169.601 235.489 170.818 235.668 171.103Z" fill="#791A4D"/>
<path d="M229.065 159.432C228.598 159.589 228.628 161.913 229.46 163.762C229.893 164.723 230.681 165.863 231.04 165.709C231.429 165.543 231.231 163.901 230.941 162.789C230.511 161.138 229.517 159.281 229.065 159.432Z" fill="#791A4D"/>
<path d="M232.815 148.529C232.822 147.985 234.057 148.125 235.669 147.039C236.788 146.284 238.428 144.709 239.299 142.542C239.475 142.103 239.657 141.548 239.789 141.577C239.987 141.622 240.012 142.984 239.789 144.163C239.377 146.341 238.046 148.286 236.356 149.201C235.693 149.561 235.198 149.641 234.784 149.622C233.863 149.582 232.808 149.032 232.815 148.529Z" fill="#791A4D"/>
<path d="M229.46 180.21C227.299 182.262 226.119 181.897 225.798 183.053C225.435 184.362 226.919 184.945 227.185 187.591C227.351 189.235 226.894 190.166 227.284 190.406C227.875 190.769 228.851 188.586 231.139 187.767C231.316 187.704 233.712 186.887 235.668 188.153C236.804 188.889 236.661 189.595 238.515 191.357C239.701 192.485 240.317 193.054 241.061 192.943C242.287 192.758 242.98 190.856 243.406 189.687C243.758 188.72 244.565 186.503 243.991 183.875C243.743 182.737 243.559 183.006 240.18 177.768C239.246 176.32 238.87 175.696 238.025 175.301C236.298 174.495 234.404 175.482 234.095 175.643C233.417 175.997 232.822 176.603 231.632 177.817C230.225 179.252 230.313 179.4 229.46 180.21Z" fill="#791A4D"/>
<path d="M117.988 134.175C115.966 132.736 112.472 129.754 110.588 124.748C109.821 122.712 107.576 116.748 110.416 113.331C112.101 111.305 114.826 111.081 116.227 110.966C117.414 110.868 121.069 110.568 123.367 112.901C127.029 116.618 124.404 124.162 123.875 125.679C122.349 130.065 119.597 132.81 117.988 134.175Z" fill="url(#paint3_linear_125_53182)"/>
<path d="M121.332 119.513C121.332 122.013 119.392 124.007 116.994 123.966C114.592 123.924 112.642 121.857 112.642 119.348C112.642 116.839 114.592 114.845 116.994 114.895C119.392 114.946 121.332 117.013 121.332 119.513Z" fill="url(#paint4_linear_125_53182)"/>
<path d="M144.476 185.145C142.499 183.765 139.083 180.89 137.239 175.979C136.49 173.982 134.294 168.132 137.072 164.693C138.719 162.654 141.384 162.375 142.754 162.231C143.914 162.109 147.489 161.735 149.736 163.993C153.318 167.591 150.75 175.107 150.234 176.619C148.741 180.988 146.05 183.761 144.476 185.145Z" fill="url(#paint5_linear_125_53182)"/>
<path d="M147.746 170.574C147.746 173.046 145.849 175.059 143.505 175.069C141.156 175.079 139.248 173.076 139.248 170.595C139.248 168.113 141.156 166.101 143.505 166.1C145.849 166.098 147.746 168.102 147.746 170.574Z" fill="url(#paint6_linear_125_53182)"/>
<path d="M231.491 182.816C229.657 181.485 226.489 178.713 224.779 173.982C224.085 172.059 222.048 166.423 224.624 163.114C226.152 161.151 228.624 160.883 229.894 160.746C230.97 160.629 234.286 160.271 236.371 162.447C239.694 165.916 237.312 173.153 236.832 174.609C235.448 178.816 232.951 181.484 231.491 182.816Z" fill="url(#paint7_linear_125_53182)"/>
<path d="M234.524 168.785C234.524 171.166 232.765 173.103 230.59 173.111C228.411 173.119 226.642 171.188 226.642 168.799C226.642 166.409 228.411 164.472 230.59 164.473C232.765 164.473 234.524 166.404 234.524 168.785Z" fill="url(#paint8_linear_125_53182)"/>
<path d="M206.51 152.887C204.636 151.517 201.397 148.673 199.65 143.867C198.94 141.913 196.858 136.188 199.491 132.877C201.053 130.912 203.579 130.675 204.878 130.553C205.978 130.45 209.367 130.132 211.498 132.36C214.894 135.911 212.459 143.196 211.969 144.662C210.554 148.896 208.003 151.561 206.51 152.887Z" fill="url(#paint9_linear_125_53182)"/>
<path d="M209.611 138.743C209.611 141.15 207.812 143.085 205.59 143.064C203.363 143.043 201.554 141.067 201.554 138.651C201.554 136.235 203.363 134.301 205.59 134.33C207.812 134.36 209.611 136.335 209.611 138.743Z" fill="url(#paint10_linear_125_53182)"/>
<path d="M118.691 134.175C116.668 132.736 113.175 129.754 111.29 124.748C110.524 122.712 108.278 116.748 111.119 113.331C112.804 111.305 115.529 111.081 116.93 110.966C118.116 110.868 121.772 110.568 124.07 112.901C127.732 116.618 125.106 124.162 124.578 125.679C123.052 130.065 120.3 132.81 118.691 134.175Z" fill="url(#paint11_linear_125_53182)"/>
<path d="M122.034 119.513C122.034 122.013 120.094 124.007 117.697 123.966C115.295 123.924 113.344 121.857 113.344 119.348C113.344 116.839 115.295 114.845 117.697 114.895C120.094 114.946 122.034 117.013 122.034 119.513Z" fill="#F4F7FA"/>
<path d="M145.179 185.145C143.201 183.765 139.785 180.89 137.942 175.979C137.193 173.982 134.997 168.132 137.775 164.693C139.422 162.654 142.087 162.375 143.457 162.231C144.617 162.109 148.192 161.735 150.439 163.993C154.021 167.591 151.453 175.107 150.936 176.619C149.443 180.988 146.753 183.761 145.179 185.145Z" fill="url(#paint12_linear_125_53182)"/>
<path d="M148.449 170.574C148.449 173.046 146.552 175.059 144.207 175.069C141.858 175.079 139.951 173.076 139.951 170.595C139.951 168.113 141.858 166.101 144.207 166.1C146.552 166.098 148.449 168.102 148.449 170.574Z" fill="#F4F7FA"/>
<path d="M232.193 182.816C230.359 181.485 227.191 178.713 225.482 173.982C224.787 172.059 222.75 166.423 225.326 163.114C226.854 161.151 229.326 160.883 230.597 160.746C231.673 160.629 234.989 160.271 237.073 162.447C240.396 165.916 238.014 173.153 237.535 174.609C236.15 178.816 233.654 181.484 232.193 182.816Z" fill="url(#paint13_linear_125_53182)"/>
<path d="M235.227 168.785C235.227 171.166 233.467 173.103 231.292 173.111C229.114 173.119 227.344 171.188 227.344 168.799C227.344 166.409 229.114 164.472 231.292 164.473C233.467 164.473 235.227 166.404 235.227 168.785Z" fill="#F4F7FA"/>
<path d="M207.213 152.885C205.338 151.516 202.099 148.671 200.352 143.865C199.642 141.911 197.56 136.186 200.193 132.875C201.755 130.91 204.281 130.673 205.58 130.551C206.68 130.448 210.069 130.13 212.2 132.358C215.596 135.909 213.161 143.194 212.671 144.66C211.256 148.894 208.705 151.559 207.213 152.885Z" fill="url(#paint14_linear_125_53182)"/>
<path d="M210.313 138.741C210.313 141.148 208.514 143.083 206.291 143.062C204.064 143.041 202.256 141.065 202.256 138.649C202.256 136.233 204.064 134.299 206.291 134.328C208.514 134.358 210.313 136.334 210.313 138.741Z" fill="#F4F7FA"/>
<path d="M130.586 307.998H274.378V238.053H130.586V307.998Z" fill="#D8DEE8"/>
<path opacity="0.3" d="M136.544 302.719H268.42V242.239H136.544V302.719Z" fill="#D8DEE8"/>
<path opacity="0.6" d="M253.896 302.721H259.987V242.241H253.896V302.721Z" fill="#D8DEE8"/>
<path d="M253.657 302.721H257.718V242.241H253.657V302.721Z" fill="#D8DEE8"/>
<path opacity="0.6" d="M238.37 302.721H244.461V242.241H238.37V302.721Z" fill="#D8DEE8"/>
<path d="M238.131 302.721H242.192V242.241H238.131V302.721Z" fill="#D8DEE8"/>
<path opacity="0.6" d="M222.845 302.721H228.936V242.241H222.845V302.721Z" fill="#D8DEE8"/>
<path d="M222.606 302.721H226.667V242.241H222.606V302.721Z" fill="#D8DEE8"/>
<path opacity="0.6" d="M207.319 302.721H213.41V242.241H207.319V302.721Z" fill="#D8DEE8"/>
<path d="M207.08 302.721H211.141V242.241H207.08V302.721Z" fill="#D8DEE8"/>
<path opacity="0.6" d="M191.793 302.721H197.884V242.241H191.793V302.721Z" fill="#D8DEE8"/>
<path d="M191.554 302.721H195.615V242.241H191.554V302.721Z" fill="#D8DEE8"/>
<path opacity="0.6" d="M176.267 302.721H182.358V242.241H176.267V302.721Z" fill="#D8DEE8"/>
<path d="M176.029 302.721H180.089V242.241H176.029V302.721Z" fill="#D8DEE8"/>
<path opacity="0.6" d="M160.742 302.721H166.833V242.241H160.742V302.721Z" fill="#D8DEE8"/>
<path d="M160.502 302.721H164.563V242.241H160.502V302.721Z" fill="#D8DEE8"/>
<path opacity="0.6" d="M145.216 302.721H151.307V242.241H145.216V302.721Z" fill="#D8DEE8"/>
<path d="M144.977 302.721H149.038V242.241H144.977V302.721Z" fill="#D8DEE8"/>
<path d="M274.379 307.998H346.322V238.053H274.379V307.998Z" fill="#F4F7FA"/>
<path d="M344.123 305.798V240.252H276.578V305.798H344.123Z" fill="#D8DEE8"/>
<path d="M277.532 304.475H309.861V241.576H277.532V304.475Z" fill="#D8DEE8"/>
<path d="M310.837 304.475H343.166V241.576H310.837V304.475Z" fill="#D8DEE8"/>
<path opacity="0.3" d="M310.837 264.998H343.167V259.5H310.837V264.998Z" fill="#D8DEE8"/>
<path opacity="0.3" d="M310.837 286.551H343.167V281.053H310.837V286.551Z" fill="#D8DEE8"/>
<path opacity="0.3" d="M277.533 264.998H309.862V259.5H277.533V264.998Z" fill="#D8DEE8"/>
<path opacity="0.3" d="M277.533 286.551H309.862V281.053H277.533V286.551Z" fill="#D8DEE8"/>
<path d="M327.04 305.463H328.74V239.925H327.04V305.463Z" fill="#D8DEE8"/>
<path d="M328.739 305.464V239.926H327.89L328.739 305.464Z" fill="#97A6B7"/>
<path d="M326.396 241.904H329.383V238.459H326.396V241.904Z" fill="#D8DEE8"/>
<path d="M326.396 307.186H329.383V303.74H326.396V307.186Z" fill="#D8DEE8"/>
<path d="M303.654 305.463H305.354V239.925H303.654V305.463Z" fill="#D8DEE8"/>
<path d="M305.354 305.464V239.926H304.504L305.354 305.464Z" fill="#97A6B7"/>
<path d="M303.01 241.904H305.998V238.459H303.01V241.904Z" fill="#D8DEE8"/>
<path d="M303.01 307.186H305.998V303.74H303.01V307.186Z" fill="#D8DEE8"/>
<path d="M291.961 305.463H293.661V239.925H291.961V305.463Z" fill="#D8DEE8"/>
<path d="M293.661 305.464V239.926H292.811L293.661 305.464Z" fill="#97A6B7"/>
<path d="M291.317 241.904H294.305V238.459H291.317V241.904Z" fill="#D8DEE8"/>
<path d="M291.317 307.186H294.305V303.74H291.317V307.186Z" fill="#D8DEE8"/>
<path d="M315.347 305.463H317.047V239.925H315.347V305.463Z" fill="#D8DEE8"/>
<path d="M317.047 305.464V239.926H316.197L317.047 305.464Z" fill="#97A6B7"/>
<path d="M314.703 241.904H317.69V238.459H314.703V241.904Z" fill="#D8DEE8"/>
<path d="M314.703 307.186H317.69V303.74H314.703V307.186Z" fill="#D8DEE8"/>
<path d="M54.3382 307.998H198.13V238.053H54.3382V307.998Z" fill="#D8DEE8"/>
<path opacity="0.3" d="M60.2964 302.719H192.172V242.239H60.2964V302.719Z" fill="#D8DEE8"/>
<path opacity="0.6" d="M177.649 302.721H183.74V242.241H177.649V302.721Z" fill="#D8DEE8"/>
<path d="M177.41 302.721H181.471V242.241H177.41V302.721Z" fill="#D8DEE8"/>
<path opacity="0.6" d="M162.123 302.721H168.214V242.241H162.123V302.721Z" fill="#D8DEE8"/>
<path d="M161.884 302.721H165.945V242.241H161.884V302.721Z" fill="#D8DEE8"/>
<path opacity="0.6" d="M146.598 302.721H152.688V242.241H146.598V302.721Z" fill="#D8DEE8"/>
<path d="M146.359 302.721H150.419V242.241H146.359V302.721Z" fill="#D8DEE8"/>
<path opacity="0.6" d="M131.072 302.721H137.163V242.241H131.072V302.721Z" fill="#D8DEE8"/>
<path d="M130.832 302.721H134.893V242.241H130.832V302.721Z" fill="#D8DEE8"/>
<path opacity="0.6" d="M115.546 302.721H121.637L121.637 242.241H115.546V302.721Z" fill="#D8DEE8"/>
<path d="M115.307 302.721H119.368L119.368 242.241H115.307V302.721Z" fill="#D8DEE8"/>
<path opacity="0.6" d="M100.02 302.721H106.111L106.111 242.241H100.02V302.721Z" fill="#D8DEE8"/>
<path d="M99.7817 302.721H103.842L103.842 242.241H99.7817V302.721Z" fill="#D8DEE8"/>
<path opacity="0.6" d="M84.4946 302.721H90.5854L90.5854 242.241H84.4946V302.721Z" fill="#D8DEE8"/>
<path d="M84.2553 302.721H88.3159L88.3159 242.241H84.2553V302.721Z" fill="#D8DEE8"/>
<path opacity="0.6" d="M68.9688 302.721H75.0596L75.0596 242.241H68.9688V302.721Z" fill="#D8DEE8"/>
<path d="M68.7299 302.721H72.7905L72.7905 242.241H68.7299V302.721Z" fill="#D8DEE8"/>
<path d="M198.131 307.998H270.074V238.053H198.131V307.998Z" fill="white"/>
<path d="M267.875 305.798V240.252H200.33V305.798H267.875Z" fill="#D8DEE8"/>
<path d="M201.286 304.475H233.615V241.576H201.286V304.475Z" fill="#D8DEE8"/>
<path d="M234.59 304.475H266.919V241.576H234.59V304.475Z" fill="#D8DEE8"/>
<path opacity="0.3" d="M234.59 264.998H266.919V259.5H234.59V264.998Z" fill="#D8DEE8"/>
<path opacity="0.3" d="M234.59 286.551H266.919V281.053H234.59V286.551Z" fill="#D8DEE8"/>
<path opacity="0.3" d="M201.285 264.998H233.614V259.5H201.285V264.998Z" fill="#D8DEE8"/>
<path opacity="0.3" d="M201.285 286.551H233.614V281.053H201.285V286.551Z" fill="#D8DEE8"/>
<path d="M250.792 305.463H252.491V239.925H250.792V305.463Z" fill="#D8DEE8"/>
<path d="M252.491 305.464V239.926H251.642L252.491 305.464Z" fill="#97A6B7"/>
<path d="M250.148 241.904H253.135V238.459H250.148V241.904Z" fill="#D8DEE8"/>
<path d="M250.148 307.186H253.135V303.74H250.148V307.186Z" fill="#D8DEE8"/>
<path d="M227.406 305.463H229.106V239.925H227.406V305.463Z" fill="#D8DEE8"/>
<path d="M229.106 305.464V239.926H228.256L229.106 305.464Z" fill="#97A6B7"/>
<path d="M226.762 241.904H229.75V238.459H226.762V241.904Z" fill="#D8DEE8"/>
<path d="M226.762 307.186H229.75V303.74H226.762V307.186Z" fill="#D8DEE8"/>
<path d="M215.713 305.463H217.413V239.925H215.713V305.463Z" fill="#D8DEE8"/>
<path d="M217.412 305.464V239.926H216.562L217.412 305.464Z" fill="#97A6B7"/>
<path d="M215.069 241.904H218.056V238.459H215.069V241.904Z" fill="#D8DEE8"/>
<path d="M215.069 307.186H218.056V303.74H215.069V307.186Z" fill="#D8DEE8"/>
<path d="M239.099 305.463H240.798V239.925H239.099V305.463Z" fill="#D8DEE8"/>
<path d="M240.798 305.464V239.926H239.948L240.798 305.464Z" fill="#97A6B7"/>
<path d="M238.455 241.904H241.442V238.459H238.455V241.904Z" fill="#D8DEE8"/>
<path d="M238.455 307.186H241.442V303.74H238.455V307.186Z" fill="#D8DEE8"/>
<path d="M78.1854 238.459L221.978 238.459V168.514H78.1854V238.459Z" fill="#D8DEE8"/>
<path opacity="0.3" d="M84.1436 233.18L216.019 233.18V172.7H84.1436V233.18Z" fill="#D8DEE8"/>
<path opacity="0.6" d="M201.495 233.18H207.586V172.7H201.495V233.18Z" fill="#D8DEE8"/>
<path d="M201.256 233.18H205.317V172.7H201.256V233.18Z" fill="#D8DEE8"/>
<path opacity="0.6" d="M185.97 233.18H192.061V172.7H185.97V233.18Z" fill="#D8DEE8"/>
<path d="M185.731 233.18H189.792V172.7H185.731V233.18Z" fill="#D8DEE8"/>
<path opacity="0.6" d="M170.444 233.18H176.535V172.7H170.444V233.18Z" fill="#D8DEE8"/>
<path d="M170.205 233.18H174.266V172.7H170.205V233.18Z" fill="#D8DEE8"/>
<path opacity="0.6" d="M154.918 233.18H161.009V172.7H154.918V233.18Z" fill="#D8DEE8"/>
<path d="M154.679 233.18H158.74V172.7H154.679V233.18Z" fill="#D8DEE8"/>
<path opacity="0.6" d="M139.393 233.18H145.483V172.7H139.393V233.18Z" fill="#D8DEE8"/>
<path d="M139.154 233.18H143.214V172.7H139.154V233.18Z" fill="#D8DEE8"/>
<path opacity="0.6" d="M123.866 233.18H129.957V172.7H123.866V233.18Z" fill="#D8DEE8"/>
<path d="M123.627 233.18H127.688L127.688 172.7H123.627V233.18Z" fill="#D8DEE8"/>
<path opacity="0.6" d="M108.341 233.18H114.432L114.432 172.7H108.341V233.18Z" fill="#D8DEE8"/>
<path d="M108.102 233.18H112.163L112.163 172.7H108.102V233.18Z" fill="#D8DEE8"/>
<path opacity="0.6" d="M92.815 233.18H98.9058L98.9058 172.7H92.815V233.18Z" fill="#D8DEE8"/>
<path d="M92.5761 233.18H96.6367L96.6367 172.7H92.5761V233.18Z" fill="#D8DEE8"/>
<path d="M221.977 238.459H293.921V168.514H221.977V238.459Z" fill="white"/>
<path opacity="0.3" d="M291.722 236.259V170.713H224.177V236.259H291.722Z" fill="#D8DEE8"/>
<path d="M225.131 234.936H257.46V172.037H225.131V234.936Z" fill="white"/>
<path d="M258.436 234.936H290.765V172.037H258.436V234.936Z" fill="white"/>
<path opacity="0.3" d="M258.436 195.459H290.765V189.961H258.436V195.459Z" fill="#D8DEE8"/>
<path opacity="0.3" d="M258.436 217.012H290.765V211.513H258.436V217.012Z" fill="#D8DEE8"/>
<path opacity="0.3" d="M225.131 195.459H257.46V189.961H225.131V195.459Z" fill="#D8DEE8"/>
<path opacity="0.3" d="M225.131 217.012H257.46V211.513H225.131V217.012Z" fill="#D8DEE8"/>
<path d="M274.639 235.922H276.339V170.384H274.639V235.922Z" fill="#D8DEE8"/>
<path d="M276.339 235.923V170.385H275.489L276.339 235.923Z" fill="#97A6B7"/>
<path d="M273.996 172.363H276.983V168.918H273.996V172.363Z" fill="#D8DEE8"/>
<path d="M273.996 237.645H276.983V234.199H273.996V237.645Z" fill="#D8DEE8"/>
<path d="M251.254 235.922H252.953V170.384H251.254V235.922Z" fill="#D8DEE8"/>
<path d="M252.953 235.923V170.385H252.104L252.953 235.923Z" fill="#97A6B7"/>
<path d="M250.61 172.363H253.597V168.918H250.61V172.363Z" fill="#D8DEE8"/>
<path d="M250.61 237.645H253.597V234.199H250.61V237.645Z" fill="#D8DEE8"/>
<path d="M239.561 235.922H241.26V170.384H239.561V235.922Z" fill="#D8DEE8"/>
<path d="M241.26 235.923V170.385H240.411L241.26 235.923Z" fill="#97A6B7"/>
<path d="M238.917 172.363H241.904V168.918H238.917V172.363Z" fill="#D8DEE8"/>
<path d="M238.917 237.645H241.904V234.199H238.917V237.645Z" fill="#D8DEE8"/>
<path d="M262.946 235.922H264.646V170.384H262.946V235.922Z" fill="#D8DEE8"/>
<path d="M264.645 235.923V170.385H263.795L264.645 235.923Z" fill="#97A6B7"/>
<path d="M262.302 172.363H265.29V168.918H262.302V172.363Z" fill="#D8DEE8"/>
<path d="M262.302 237.645H265.29V234.199H262.302V237.645Z" fill="#D8DEE8"/>
<path d="M304.27 295.741L286.24 293.537V266.946L304.27 263.531V295.741Z" fill="url(#paint15_linear_125_53182)"/>
<path d="M326.261 294.34L304.27 295.741V263.531L326.261 266.567V294.34Z" fill="url(#paint16_linear_125_53182)"/>
<path d="M312.56 264.676V269.192L319.881 269.876V265.686L312.56 264.676Z" fill="white"/>
<path d="M330.587 330.907L301.031 332.986V289.697L330.587 291.776V330.907Z" fill="url(#paint17_linear_125_53182)"/>
<path d="M301.031 332.986L276.8 330.024V292.461L301.031 289.697V332.986Z" fill="url(#paint18_linear_125_53182)"/>
<path d="M311.494 290.434V297.202L321.397 297.704V291.13L311.494 290.434Z" fill="white"/>
<path d="M326.939 334.471L310.629 332.477V306.483L326.939 305.334V334.471Z" fill="url(#paint19_linear_125_53182)"/>
<path d="M346.832 333.127L326.938 334.471V305.334L346.832 306.478V333.127Z" fill="url(#paint20_linear_125_53182)"/>
<path d="M334.164 305.75V317.892L340.816 318.113V306.132L334.164 305.75Z" fill="white"/>
<path d="M57.5977 302.088V313.937C57.5977 315.039 58.4318 315.963 59.5284 316.074L180.845 327.57L197.174 338.377L219.723 308.382L57.5977 302.088Z" fill="url(#paint21_linear_125_53182)"/>
<path d="M150.586 318.373V328.978C150.586 329.867 151.232 330.625 152.11 330.766L181.235 335.445L180.388 318.348L152.512 316.566C151.469 316.5 150.586 317.328 150.586 318.373Z" fill="url(#paint22_linear_125_53182)"/>
<path d="M69.8876 307.555C69.7889 307.555 69.6914 307.562 69.5942 307.573L68.0541 307.555L68.063 308.233C66.5708 309.399 65.5352 311.95 65.5352 314.912C65.5352 317.99 66.6541 320.626 68.2417 321.723L68.2489 322.269H69.8875C72.2912 322.269 74.2399 318.975 74.2399 314.912C74.24 310.849 72.2913 307.555 69.8876 307.555Z" fill="url(#paint23_linear_125_53182)"/>
<path d="M68.054 322.269C70.4577 322.269 72.4064 318.975 72.4064 314.912C72.4064 310.849 70.4577 307.555 68.054 307.555C65.6503 307.555 63.7017 310.849 63.7017 314.912C63.7017 318.975 65.6503 322.269 68.054 322.269Z" fill="url(#paint24_linear_125_53182)"/>
<path d="M67.4422 319.046C68.7927 319.046 69.8874 317.195 69.8874 314.913C69.8874 312.63 68.7927 310.779 67.4422 310.779C66.0918 310.779 64.9971 312.63 64.9971 314.913C64.9971 317.195 66.0918 319.046 67.4422 319.046Z" fill="#D8DEE8"/>
<path d="M67.8121 318.749C68.9582 318.749 69.8873 317.031 69.8873 314.912C69.8873 312.792 68.9582 311.074 67.8121 311.074C66.6659 311.074 65.7368 312.792 65.7368 314.912C65.7368 317.031 66.6659 318.749 67.8121 318.749Z" fill="url(#paint25_linear_125_53182)"/>
<path d="M80.1729 308.383C80.0648 308.383 79.9578 308.391 79.8515 308.403L78.1641 308.383L78.1739 309.125C76.539 310.404 75.4043 313.199 75.4043 316.444C75.4043 319.816 76.6302 322.704 78.3697 323.906L78.3776 324.505H80.1729C82.8065 324.505 84.9415 320.896 84.9415 316.444C84.9415 311.992 82.8065 308.383 80.1729 308.383Z" fill="url(#paint26_linear_125_53182)"/>
<path d="M78.1641 324.504C80.7978 324.504 82.9328 320.895 82.9328 316.444C82.9328 311.992 80.7978 308.383 78.1641 308.383C75.5305 308.383 73.3955 311.992 73.3955 316.444C73.3955 320.895 75.5305 324.504 78.1641 324.504Z" fill="url(#paint27_linear_125_53182)"/>
<path d="M77.494 320.973C78.9736 320.973 80.173 318.946 80.173 316.445C80.173 313.944 78.9736 311.916 77.494 311.916C76.0144 311.916 74.8149 313.944 74.8149 316.445C74.8149 318.946 76.0144 320.973 77.494 320.973Z" fill="#D8DEE8"/>
<path d="M77.8996 320.649C79.1553 320.649 80.1733 318.767 80.1733 316.445C80.1733 314.123 79.1553 312.24 77.8996 312.24C76.6439 312.24 75.626 314.123 75.626 316.445C75.626 318.767 76.6439 320.649 77.8996 320.649Z" fill="url(#paint28_linear_125_53182)"/>
<path d="M91.1516 308.383C91.0336 308.383 90.9168 308.392 90.8007 308.405L88.9582 308.383L88.969 309.194C87.1839 310.589 85.9448 313.641 85.9448 317.184C85.9448 320.867 87.2834 324.02 89.1827 325.333L89.1913 325.986H91.1515C94.027 325.986 96.3582 322.045 96.3582 317.184C96.3583 312.323 94.0271 308.383 91.1516 308.383Z" fill="url(#paint29_linear_125_53182)"/>
<path d="M88.9582 325.986C91.8337 325.986 94.1648 322.045 94.1648 317.184C94.1648 312.323 91.8337 308.383 88.9582 308.383C86.0826 308.383 83.7515 312.323 83.7515 317.184C83.7515 322.045 86.0826 325.986 88.9582 325.986Z" fill="url(#paint30_linear_125_53182)"/>
<path d="M88.2264 322.13C89.842 322.13 91.1516 319.916 91.1516 317.185C91.1516 314.454 89.842 312.24 88.2264 312.24C86.6109 312.24 85.3013 314.454 85.3013 317.185C85.3013 319.916 86.6109 322.13 88.2264 322.13Z" fill="#D8DEE8"/>
<path d="M88.6691 321.775C90.0402 321.775 91.1517 319.72 91.1517 317.184C91.1517 314.649 90.0402 312.594 88.6691 312.594C87.298 312.594 86.1865 314.649 86.1865 317.184C86.1865 319.72 87.298 321.775 88.6691 321.775Z" fill="url(#paint31_linear_125_53182)"/>
<path d="M141.773 312.975C141.623 312.975 141.474 312.986 141.325 313.003L138.973 312.975L138.987 314.01C136.708 315.791 135.126 319.688 135.126 324.211C135.126 328.912 136.835 332.937 139.26 334.613L139.271 335.446H141.773C145.444 335.446 148.42 330.416 148.42 324.211C148.42 318.005 145.444 312.975 141.773 312.975Z" fill="url(#paint32_linear_125_53182)"/>
<path d="M138.974 335.446C142.645 335.446 145.62 330.416 145.62 324.211C145.62 318.005 142.645 312.975 138.974 312.975C135.303 312.975 132.327 318.005 132.327 324.211C132.327 330.416 135.303 335.446 138.974 335.446Z" fill="url(#paint33_linear_125_53182)"/>
<path d="M138.039 330.523C140.101 330.523 141.773 327.697 141.773 324.211C141.773 320.725 140.101 317.898 138.039 317.898C135.977 317.898 134.305 320.725 134.305 324.211C134.305 327.697 135.977 330.523 138.039 330.523Z" fill="#D8DEE8"/>
<path d="M138.604 330.07C140.355 330.07 141.774 327.447 141.774 324.21C141.774 320.973 140.355 318.35 138.604 318.35C136.854 318.35 135.435 320.973 135.435 324.21C135.435 327.447 136.854 330.07 138.604 330.07Z" fill="url(#paint34_linear_125_53182)"/>
<path d="M186.005 314.75C185.813 314.75 185.622 314.765 185.433 314.786L182.428 314.75L182.446 316.072C179.534 318.349 177.514 323.326 177.514 329.104C177.514 335.11 179.697 340.252 182.794 342.393L182.808 343.459H186.005C190.695 343.459 194.497 337.032 194.497 329.104C194.497 321.177 190.695 314.75 186.005 314.75Z" fill="url(#paint35_linear_125_53182)"/>
<path d="M182.428 343.459C187.118 343.459 190.92 337.032 190.92 329.104C190.92 321.177 187.118 314.75 182.428 314.75C177.738 314.75 173.937 321.177 173.937 329.104C173.937 337.032 177.738 343.459 182.428 343.459Z" fill="url(#paint36_linear_125_53182)"/>
<path d="M181.235 337.17C183.869 337.17 186.005 333.559 186.005 329.105C186.005 324.652 183.869 321.041 181.235 321.041C178.6 321.041 176.464 324.652 176.464 329.105C176.464 333.559 178.6 337.17 181.235 337.17Z" fill="#D8DEE8"/>
<path d="M181.957 336.591C184.193 336.591 186.005 333.239 186.005 329.104C186.005 324.969 184.193 321.617 181.957 321.617C179.72 321.617 177.908 324.969 177.908 329.104C177.908 333.239 179.72 336.591 181.957 336.591Z" fill="url(#paint37_linear_125_53182)"/>
<path d="M50.3811 239.017C48.7925 239.281 47.6279 240.655 47.6279 242.266V302.328C47.6279 304.076 48.9928 305.519 50.7377 305.616L163.631 311.915V220.188L50.3811 239.017Z" fill="url(#paint38_linear_125_53182)"/>
<path d="M227.294 222.329L163.631 220.188V311.915H230.717V225.869C230.717 223.96 229.203 222.393 227.294 222.329Z" fill="url(#paint39_linear_125_53182)"/>
<path d="M139.778 288.859C125.281 282.181 111.673 292.373 98.4084 282.523C86.7922 273.897 90.5375 261.112 81.264 245.998C79.1408 242.538 76.297 238.905 72.4107 235.355L50.3811 239.018C48.7925 239.282 47.6279 240.657 47.6279 242.267V302.33C47.6279 304.077 48.9928 305.52 50.7377 305.618L157.807 311.592C152.894 298.149 146.217 291.825 139.778 288.859Z" fill="url(#paint40_linear_125_53182)"/>
<path d="M264.633 282.895L259.928 271.062L259.788 261.278L264.541 260.328C265.002 260.236 265.293 259.78 265.179 259.324C264.461 256.438 261.831 246.91 257.738 243.761C254.854 241.543 200.155 240.879 200.155 240.879L173.829 242.59C171.762 242.725 170.153 244.441 170.153 246.513V304.85C170.153 306.381 171.324 307.657 172.849 307.789L190.92 309.357L194.497 312.974C194.497 312.974 245.717 317.075 266.158 313.348C267.217 313.155 267.987 312.239 267.987 311.163V285.504C267.987 281.777 264.633 282.895 264.633 282.895Z" fill="#F4F7FA"/>
<path opacity="0.8" d="M209.1 286.436C209.1 286.436 208.541 261.092 209.1 250.656C209.371 245.594 206.836 242.641 204.153 240.937C201.652 240.897 200.155 240.879 200.155 240.879L173.829 242.59C171.761 242.725 170.153 244.441 170.153 246.513V304.85C170.153 306.381 171.323 307.657 172.848 307.789L190.92 309.357L194.497 312.974C194.497 312.974 202.93 313.649 214.318 314.203V292.585L209.1 286.436Z" fill="url(#paint41_linear_125_53182)"/>
<path d="M267.404 317.893L265.379 317.184V313.078C265.379 311.971 264.481 311.074 263.375 311.074H199.945C198.415 311.074 197.174 312.315 197.174 313.845V338.377C197.174 339.727 198.296 340.806 199.645 340.754L267.564 338.142C268.841 338.092 269.851 337.043 269.851 335.764V321.342C269.851 319.789 268.87 318.406 267.404 317.893Z" fill="#B797B0"/>
<path d="M259.675 296.816H222.065C220.799 296.816 219.798 297.89 219.887 299.153L221.959 328.682C222.063 330.165 223.322 331.3 224.808 331.249L257.12 330.155C258.531 330.107 259.679 329.002 259.782 327.594L261.854 299.159C261.946 297.894 260.944 296.816 259.675 296.816Z" fill="url(#paint42_linear_125_53182)"/>
<g opacity="0.3">
<path d="M267.404 317.893L265.378 317.184V313.078C265.378 312.204 264.817 311.462 264.036 311.188L260.176 329.338C259.716 331.499 257.848 333.072 255.64 333.158L225.996 334.31C223.871 334.393 221.942 333.076 221.246 331.066L214.318 311.074H199.944C198.414 311.074 197.174 312.315 197.174 313.845V338.377C197.174 339.727 198.295 340.806 199.644 340.754L267.563 338.141C268.84 338.092 269.85 337.043 269.85 335.764V321.342C269.851 319.789 268.869 318.406 267.404 317.893Z" fill="#B797B0"/>
</g>
<path d="M217.486 332.65L210.433 333.003C206.054 333.222 202.291 329.927 201.93 325.557L201.646 322.129H215.766C216.716 322.129 217.486 322.899 217.486 323.849V332.65Z" fill="url(#paint43_linear_125_53182)"/>
<path d="M262.985 323.58L261.859 331.25C261.859 331.25 269.295 330.99 269.109 321.617L264.494 322.125C263.719 322.21 263.099 322.808 262.985 323.58Z" fill="url(#paint44_linear_125_53182)"/>
<path d="M210.714 286.597C209.607 286.597 208.509 286.239 207.615 285.584L204.713 283.459C203.637 282.671 202.994 281.403 202.994 280.069V263.175C202.994 262.403 203.332 261.675 203.923 261.178C204.513 260.68 205.288 260.469 206.049 260.601L208.893 261.091L259.94 261.089L264.827 282.893L264.277 285.645L264.124 285.648L210.806 286.596C210.775 286.597 210.745 286.597 210.714 286.597ZM205.604 260.944C205.082 260.944 204.574 261.127 204.168 261.469C203.663 261.894 203.374 262.515 203.374 263.175V280.069C203.374 281.282 203.959 282.435 204.938 283.152L207.84 285.277C208.692 285.901 209.755 286.232 210.799 286.216L263.964 285.27L264.439 282.898L259.635 261.469H208.861L205.985 260.976C205.858 260.954 205.73 260.944 205.604 260.944Z" fill="#808080"/>
<path d="M259.788 261.278H208.861L206.017 260.788C204.537 260.533 203.184 261.672 203.184 263.174V280.068C203.184 281.347 203.794 282.549 204.826 283.305L207.728 285.43C208.618 286.082 209.698 286.425 210.802 286.405L264.121 285.457L264.633 282.894L259.788 261.278Z" fill="#791A4D"/>
<path d="M228.132 255.408H223.799C223.143 255.408 222.611 255.94 222.611 256.596V258.413C222.611 259.069 223.143 259.601 223.799 259.601H228.132C228.788 259.601 229.32 259.069 229.32 258.413V256.596C229.32 255.94 228.788 255.408 228.132 255.408Z" fill="#B797B0"/>
<path d="M253.569 255.408H249.236C248.58 255.408 248.048 255.94 248.048 256.596V258.413C248.048 259.069 248.58 259.601 249.236 259.601H253.569C254.225 259.601 254.757 259.069 254.757 258.413V256.596C254.757 255.94 254.225 255.408 253.569 255.408Z" fill="#B797B0"/>
<path opacity="0.3" d="M243.855 273.298C230.713 268.271 218.351 274.536 212.688 267.707C211.156 265.861 210.538 263.563 210.395 261.278H208.861L206.017 260.788C204.537 260.533 203.184 261.672 203.184 263.174V280.068C203.184 281.347 203.794 282.549 204.826 283.305L207.728 285.43C208.618 286.082 209.698 286.425 210.803 286.405L259.101 285.546C253.641 278.187 248.096 274.92 243.855 273.298Z" fill="#FFD9E5"/>
<path d="M58.5447 282.429L51.3765 282.236V260.913L58.5447 260.184V264.048L53.9454 264.413V269.168L58.2167 268.95V272.807L53.9454 272.93V278.514L58.5447 278.534V282.429Z" fill="white"/>
<path d="M73.3777 282.829L69.7431 282.732L66.3822 273.845L63.1419 282.554L60.0879 282.471L64.5855 270.719L60.3686 259.999L63.5265 259.678L66.5377 267.745L69.5922 259.061L73.0121 258.713L68.3442 270.844L73.3777 282.829Z" fill="white"/>
<path d="M87.3875 265.345C87.3875 268.139 86.7946 270.297 85.6196 271.807C84.4582 273.3 82.8296 274.059 80.7572 274.098L79.2646 274.126V282.987L75.8726 282.895V258.421L81.029 257.896C83.061 257.69 84.6344 258.198 85.7266 259.435C86.8306 260.685 87.3875 262.659 87.3875 265.345ZM79.2646 269.799L80.4073 269.752C81.4874 269.707 82.3036 269.348 82.8491 268.671C83.3974 267.99 83.6728 267.021 83.6728 265.766C83.6728 264.5 83.4418 263.581 82.982 263.012C82.5241 262.446 81.8108 262.202 80.8478 262.278L79.2646 262.404V269.799Z" fill="white"/>
<path d="M109.588 269.359C109.588 274.128 108.698 277.794 106.939 280.325C105.207 282.817 102.771 284.003 99.6786 283.914C96.6731 283.828 94.4219 282.569 92.8797 280.163C91.3599 277.792 90.6084 274.425 90.6084 270.036C90.6084 265.647 91.3619 262.238 92.886 259.783C94.4327 257.291 96.6908 255.877 99.7059 255.565C102.808 255.243 105.243 256.24 106.961 258.591C108.706 260.978 109.588 264.577 109.588 269.359ZM94.7461 269.917C94.7461 272.922 95.1495 275.181 95.9611 276.701C96.779 278.232 98.0131 279.007 99.6787 279.017C103.098 279.037 104.849 275.877 104.849 269.537C104.849 263.184 103.108 260.149 99.7059 260.425C98.04 260.56 96.801 261.431 95.9743 263.032C95.1538 264.619 94.7461 266.911 94.7461 269.917Z" fill="white"/>
<path d="M119.941 272.516V284.083L114.993 283.95V254.443L121.848 253.746C125.187 253.406 127.719 253.919 129.39 255.306C131.084 256.712 131.94 259.019 131.94 262.212C131.94 264.076 131.514 265.755 130.667 267.241C129.826 268.717 128.645 269.883 127.135 270.74C131.007 277.724 133.597 282.356 134.82 284.483L128.634 284.317L122.663 272.455L119.941 272.516ZM119.941 267.321L121.583 267.247C123.215 267.175 124.434 266.777 125.227 266.052C126.025 265.322 126.426 264.213 126.426 262.73C126.426 261.261 126.016 260.246 125.201 259.687C124.391 259.132 123.148 258.922 121.484 259.054L119.941 259.176V267.321Z" fill="white"/>
<path d="M150.487 284.905L144.182 284.736V257.344L136.533 257.948V252.252L159.025 249.965V256.171L150.487 256.846V284.905Z" fill="white"/>
<defs>
<linearGradient id="paint0_linear_125_53182" x1="303.996" y1="123.763" x2="285.392" y2="309.373" gradientUnits="userSpaceOnUse">
<stop stop-color="#AA80F9"/>
<stop offset="0.9964" stop-color="#791A4D"/>
</linearGradient>
<linearGradient id="paint1_linear_125_53182" x1="330.429" y1="149.455" x2="240.022" y2="149.455" gradientUnits="userSpaceOnUse">
<stop stop-color="#FF9085"/>
<stop offset="1" stop-color="#FB6FBB"/>
</linearGradient>
<linearGradient id="paint2_linear_125_53182" x1="58.4146" y1="165.877" x2="283.007" y2="165.877" gradientUnits="userSpaceOnUse">
<stop stop-color="#444B8C"/>
<stop offset="0.9964" stop-color="#26264F"/>
</linearGradient>
<linearGradient id="paint3_linear_125_53182" x1="109.019" y1="122.537" x2="125.28" y2="122.537" gradientUnits="userSpaceOnUse">
<stop stop-color="#311944"/>
<stop offset="1" stop-color="#6B3976"/>
</linearGradient>
<linearGradient id="paint4_linear_125_53182" x1="112.642" y1="119.43" x2="121.332" y2="119.43" gradientUnits="userSpaceOnUse">
<stop stop-color="#311944"/>
<stop offset="1" stop-color="#6B3976"/>
</linearGradient>
<linearGradient id="paint5_linear_125_53182" x1="135.706" y1="173.638" x2="151.608" y2="173.638" gradientUnits="userSpaceOnUse">
<stop stop-color="#311944"/>
<stop offset="1" stop-color="#6B3976"/>
</linearGradient>
<linearGradient id="paint6_linear_125_53182" x1="139.248" y1="170.584" x2="147.746" y2="170.584" gradientUnits="userSpaceOnUse">
<stop stop-color="#311944"/>
<stop offset="1" stop-color="#6B3976"/>
</linearGradient>
<linearGradient id="paint7_linear_125_53182" x1="223.357" y1="171.733" x2="238.107" y2="171.733" gradientUnits="userSpaceOnUse">
<stop stop-color="#311944"/>
<stop offset="1" stop-color="#6B3976"/>
</linearGradient>
<linearGradient id="paint8_linear_125_53182" x1="226.642" y1="168.792" x2="234.524" y2="168.792" gradientUnits="userSpaceOnUse">
<stop stop-color="#311944"/>
<stop offset="1" stop-color="#6B3976"/>
</linearGradient>
<linearGradient id="paint9_linear_125_53182" x1="198.196" y1="141.682" x2="213.272" y2="141.682" gradientUnits="userSpaceOnUse">
<stop stop-color="#311944"/>
<stop offset="1" stop-color="#6B3976"/>
</linearGradient>
<linearGradient id="paint10_linear_125_53182" x1="201.554" y1="138.697" x2="209.611" y2="138.697" gradientUnits="userSpaceOnUse">
<stop stop-color="#311944"/>
<stop offset="1" stop-color="#6B3976"/>
</linearGradient>
<linearGradient id="paint11_linear_125_53182" x1="109.722" y1="122.537" x2="125.983" y2="122.537" gradientUnits="userSpaceOnUse">
<stop stop-color="#FF9085"/>
<stop offset="1" stop-color="#FB6FBB"/>
</linearGradient>
<linearGradient id="paint12_linear_125_53182" x1="136.409" y1="173.638" x2="152.31" y2="173.638" gradientUnits="userSpaceOnUse">
<stop stop-color="#FF9085"/>
<stop offset="1" stop-color="#FB6FBB"/>
</linearGradient>
<linearGradient id="paint13_linear_125_53182" x1="224.06" y1="171.733" x2="238.809" y2="171.733" gradientUnits="userSpaceOnUse">
<stop stop-color="#FF9085"/>
<stop offset="1" stop-color="#FB6FBB"/>
</linearGradient>
<linearGradient id="paint14_linear_125_53182" x1="198.898" y1="141.68" x2="213.974" y2="141.68" gradientUnits="userSpaceOnUse">
<stop stop-color="#FF9085"/>
<stop offset="1" stop-color="#FB6FBB"/>
</linearGradient>
<linearGradient id="paint15_linear_125_53182" x1="304.494" y1="265.739" x2="284.707" y2="299.158" gradientUnits="userSpaceOnUse">
<stop stop-color="#FFC444"/>
<stop offset="0.3138" stop-color="#FBA94A"/>
<stop offset="0.9964" stop-color="#F36F56"/>
</linearGradient>
<linearGradient id="paint16_linear_125_53182" x1="322.599" y1="266.551" x2="302.075" y2="301.213" gradientUnits="userSpaceOnUse">
<stop stop-color="#FFC444"/>
<stop offset="0.3138" stop-color="#FBA94A"/>
<stop offset="0.9964" stop-color="#F36F56"/>
</linearGradient>
<linearGradient id="paint17_linear_125_53182" x1="326.454" y1="292.324" x2="297.898" y2="340.552" gradientUnits="userSpaceOnUse">
<stop stop-color="#FFC444"/>
<stop offset="0.3138" stop-color="#FBA94A"/>
<stop offset="0.9964" stop-color="#F36F56"/>
</linearGradient>
<linearGradient id="paint18_linear_125_53182" x1="300.933" y1="292.428" x2="274.34" y2="337.341" gradientUnits="userSpaceOnUse">
<stop stop-color="#FFC444"/>
<stop offset="0.3138" stop-color="#FBA94A"/>
<stop offset="0.9964" stop-color="#F36F56"/>
</linearGradient>
<linearGradient id="paint19_linear_125_53182" x1="326.717" y1="307.08" x2="308.817" y2="337.31" gradientUnits="userSpaceOnUse">
<stop stop-color="#FFC444"/>
<stop offset="0.3138" stop-color="#FBA94A"/>
<stop offset="0.9964" stop-color="#F36F56"/>
</linearGradient>
<linearGradient id="paint20_linear_125_53182" x1="344.169" y1="306.929" x2="324.824" y2="339.601" gradientUnits="userSpaceOnUse">
<stop stop-color="#FFC444"/>
<stop offset="0.3138" stop-color="#FBA94A"/>
<stop offset="0.9964" stop-color="#F36F56"/>
</linearGradient>
<linearGradient id="paint21_linear_125_53182" x1="57.5976" y1="320.232" x2="219.723" y2="320.232" gradientUnits="userSpaceOnUse">
<stop stop-color="#B15385"/>
<stop offset="0.9964" stop-color="#791A4D"/>
</linearGradient>
<linearGradient id="paint22_linear_125_53182" x1="150.586" y1="326.004" x2="181.235" y2="326.004" gradientUnits="userSpaceOnUse">
<stop stop-color="#BE6A97"/>
<stop offset="0.9964" stop-color="#791A4D"/>
</linearGradient>
<linearGradient id="paint23_linear_125_53182" x1="65.5352" y1="314.912" x2="74.2399" y2="314.912" gradientUnits="userSpaceOnUse">
<stop stop-color="#791A4D"/>
<stop offset="1" stop-color="#6B3976"/>
</linearGradient>
<linearGradient id="paint24_linear_125_53182" x1="63.7017" y1="314.912" x2="72.4063" y2="314.912" gradientUnits="userSpaceOnUse">
<stop stop-color="#681240"/>
<stop offset="1" stop-color="#6B3976"/>
</linearGradient>
<linearGradient id="paint25_linear_125_53182" x1="72.1806" y1="315.5" x2="65.3834" y2="314.585" gradientUnits="userSpaceOnUse">
<stop offset="0.0054" stop-color="#D8DEE8"/>
<stop offset="1" stop-color="#F4F7FA"/>
</linearGradient>
<linearGradient id="paint26_linear_125_53182" x1="75.4043" y1="316.444" x2="84.9416" y2="316.444" gradientUnits="userSpaceOnUse">
<stop stop-color="#791A4D"/>
<stop offset="1" stop-color="#6B3976"/>
</linearGradient>
<linearGradient id="paint27_linear_125_53182" x1="73.3955" y1="316.444" x2="82.9327" y2="316.444" gradientUnits="userSpaceOnUse">
<stop stop-color="#791A4D"/>
<stop offset="1" stop-color="#6B3976"/>
</linearGradient>
<linearGradient id="paint28_linear_125_53182" x1="82.6859" y1="317.089" x2="75.2386" y2="316.086" gradientUnits="userSpaceOnUse">
<stop offset="0.0054" stop-color="#D8DEE8"/>
<stop offset="1" stop-color="#F4F7FA"/>
</linearGradient>
<linearGradient id="paint29_linear_125_53182" x1="85.9449" y1="317.184" x2="96.3583" y2="317.184" gradientUnits="userSpaceOnUse">
<stop stop-color="#791A4D"/>
<stop offset="1" stop-color="#6B3976"/>
</linearGradient>
<linearGradient id="paint30_linear_125_53182" x1="83.7515" y1="317.184" x2="94.1649" y2="317.184" gradientUnits="userSpaceOnUse">
<stop stop-color="#791A4D"/>
<stop offset="1" stop-color="#6B3976"/>
</linearGradient>
<linearGradient id="paint31_linear_125_53182" x1="93.8952" y1="317.888" x2="85.7637" y2="316.793" gradientUnits="userSpaceOnUse">
<stop offset="0.0054" stop-color="#D8DEE8"/>
<stop offset="1" stop-color="#F4F7FA"/>
</linearGradient>
<linearGradient id="paint32_linear_125_53182" x1="135.126" y1="324.21" x2="148.42" y2="324.21" gradientUnits="userSpaceOnUse">
<stop stop-color="#791A4D"/>
<stop offset="1" stop-color="#6B3976"/>
</linearGradient>
<linearGradient id="paint33_linear_125_53182" x1="132.327" y1="324.211" x2="145.62" y2="324.211" gradientUnits="userSpaceOnUse">
<stop stop-color="#791A4D"/>
<stop offset="1" stop-color="#6B3976"/>
</linearGradient>
<linearGradient id="paint34_linear_125_53182" x1="145.276" y1="325.108" x2="134.895" y2="323.711" gradientUnits="userSpaceOnUse">
<stop offset="0.0054" stop-color="#D8DEE8"/>
<stop offset="1" stop-color="#F4F7FA"/>
</linearGradient>
<linearGradient id="paint35_linear_125_53182" x1="177.514" y1="329.104" x2="194.497" y2="329.104" gradientUnits="userSpaceOnUse">
<stop stop-color="#791A4D"/>
<stop offset="1" stop-color="#6B3976"/>
</linearGradient>
<linearGradient id="paint36_linear_125_53182" x1="173.937" y1="329.104" x2="190.92" y2="329.104" gradientUnits="userSpaceOnUse">
<stop stop-color="#791A4D"/>
<stop offset="1" stop-color="#6B3976"/>
</linearGradient>
<linearGradient id="paint37_linear_125_53182" x1="190.48" y1="330.251" x2="177.218" y2="328.466" gradientUnits="userSpaceOnUse">
<stop offset="0.0054" stop-color="#D8DEE8"/>
<stop offset="1" stop-color="#F4F7FA"/>
</linearGradient>
<linearGradient id="paint38_linear_125_53182" x1="143.529" y1="251.569" x2="-27.9331" y2="362.986" gradientUnits="userSpaceOnUse">
<stop stop-color="#AA80F9"/>
<stop offset="0.9964" stop-color="#791A4D"/>
</linearGradient>
<linearGradient id="paint39_linear_125_53182" x1="258.176" y1="227.26" x2="128.078" y2="309.99" gradientUnits="userSpaceOnUse">
<stop stop-color="#AA80F9"/>
<stop offset="0.9964" stop-color="#791A4D"/>
</linearGradient>
<linearGradient id="paint40_linear_125_53182" x1="47.6279" y1="273.473" x2="157.807" y2="273.473" gradientUnits="userSpaceOnUse">
<stop stop-color="#AA80F9"/>
<stop offset="0.9964" stop-color="#791A4D"/>
</linearGradient>
<linearGradient id="paint41_linear_125_53182" x1="170.153" y1="277.541" x2="214.318" y2="277.541" gradientUnits="userSpaceOnUse">
<stop offset="0.0054" stop-color="#D8DEE8"/>
<stop offset="1" stop-color="#F4F7FA"/>
</linearGradient>
<linearGradient id="paint42_linear_125_53182" x1="219.881" y1="314.034" x2="261.859" y2="314.034" gradientUnits="userSpaceOnUse">
<stop stop-color="#C8659A"/>
<stop offset="0.9964" stop-color="#791A4D"/>
</linearGradient>
<linearGradient id="paint43_linear_125_53182" x1="213.57" y1="313.44" x2="192.888" y2="385.494" gradientUnits="userSpaceOnUse">
<stop stop-color="#791A4D"/>
<stop offset="1" stop-color="#FB6FBB"/>
</linearGradient>
<linearGradient id="paint44_linear_125_53182" x1="264.782" y1="328.139" x2="244.1" y2="400.194" gradientUnits="userSpaceOnUse">
<stop stop-color="#791A4D"/>
<stop offset="1" stop-color="#FB6FBB"/>
</linearGradient>
</defs>
</svg>
