<svg width="24" height="25" viewBox="0 0 24 25" fill="none" xmlns="http://www.w3.org/2000/svg">
<g id="whatsapp">
<path id="Vector" d="M19.3547 5.27617C17.3906 3.30742 14.775 2.22461 11.9953 2.22461C6.25781 2.22461 1.58906 6.89336 1.58906 12.6309C1.58906 14.4637 2.06719 16.2543 2.97656 17.834L1.5 23.2246L7.01719 21.7762C8.53594 22.6059 10.2469 23.0418 11.9906 23.0418H11.9953C17.7281 23.0418 22.5 18.373 22.5 12.6355C22.5 9.85586 21.3188 7.24492 19.3547 5.27617ZM11.9953 21.2887C10.4391 21.2887 8.91562 20.8715 7.58906 20.084L7.275 19.8965L4.00313 20.7543L4.875 17.5621L4.66875 17.234C3.80156 15.8559 3.34688 14.2668 3.34688 12.6309C3.34688 7.86367 7.22812 3.98242 12 3.98242C14.3109 3.98242 16.4812 4.88242 18.1125 6.51836C19.7437 8.1543 20.7469 10.3246 20.7422 12.6355C20.7422 17.4074 16.7625 21.2887 11.9953 21.2887ZM16.7391 14.8105C16.4813 14.6793 15.2016 14.0512 14.9625 13.9668C14.7234 13.8777 14.55 13.8355 14.3766 14.098C14.2031 14.3605 13.7063 14.9418 13.5516 15.1199C13.4016 15.2934 13.2469 15.3168 12.9891 15.1855C11.4609 14.4215 10.4578 13.8215 9.45 12.0918C9.18281 11.6324 9.71719 11.6652 10.2141 10.6715C10.2984 10.498 10.2562 10.348 10.1906 10.2168C10.125 10.0855 9.60469 8.80586 9.38906 8.28555C9.17813 7.7793 8.9625 7.84961 8.80313 7.84023C8.65313 7.83086 8.47969 7.83086 8.30625 7.83086C8.13281 7.83086 7.85156 7.89648 7.6125 8.1543C7.37344 8.4168 6.70312 9.04492 6.70312 10.3246C6.70312 11.6043 7.63594 12.8418 7.7625 13.0152C7.89375 13.1887 9.59531 15.8137 12.2062 16.9434C13.8562 17.6559 14.5031 17.7168 15.3281 17.5949C15.8297 17.5199 16.8656 16.9668 17.0812 16.3574C17.2969 15.748 17.2969 15.2277 17.2313 15.1199C17.1703 15.0027 16.9969 14.9371 16.7391 14.8105Z" fill="#1F2120"/>
</g>
</svg>
